<?xml version="1.0" encoding="utf-8"?>
<svg viewBox="-12.384 -17.272 928.631 64.23" xmlns="http://www.w3.org/2000/svg">
  <path d="M 5.54 27.721 L 19.156 28.532 C 32.672 29.615 59.903 31.238 87.035 26.909 C 114.167 22.309 141.399 11.486 168.332 10.674 C 195.364 9.592 222.198 18.792 249.231 23.662 C 276.164 28.532 303.395 29.615 330.527 24.203 C 357.659 18.792 384.89 6.886 412.022 3.91 C 439.154 0.663 466.386 6.074 493.518 6.616 C 520.65 6.886 547.881 2.557 575.013 0.663 C 602.145 -1.231 629.376 -0.149 656.309 4.18 C 683.342 8.78 710.176 16.898 737.208 17.709 C 764.141 18.792 791.373 12.298 818.505 11.486 C 845.637 10.674 872.868 15.003 886.384 17.439 L 900 19.603" fill="none" stroke-linecap="round" stroke-linejoin="miter" stroke="#4285f4" stroke-width="30" style=""/>
</svg>