<svg id="visual" viewBox="0 0 900 100" width="900" height="100" xmlns="http://www.w3.org/2000/svg" xmlns:xlink="http://www.w3.org/1999/xlink" version="1.1"><path d="M0 56L13.7 50.3C27.3 44.7 54.7 33.3 82 33C109.3 32.7 136.7 43.3 163.8 53C191 62.7 218 71.3 245.2 75.3C272.3 79.3 299.7 78.7 327 76C354.3 73.3 381.7 68.7 409 63.5C436.3 58.3 463.7 52.7 491 55.8C518.3 59 545.7 71 573 67C600.3 63 627.7 43 654.8 33.2C682 23.3 709 23.7 736.2 25.5C763.3 27.3 790.7 30.7 818 36.5C845.3 42.3 872.7 50.7 886.3 54.8L900 59" fill="none" stroke-linecap="round" stroke-linejoin="miter" stroke="#4285f4" stroke-width="30"></path></svg>