solid money-clip-double-thicker
facet normal 0.0 0.0 -1.0
  outer loop
    vertex 22.63854780266353 2.8784991855813646 0.0
    vertex 27.41412853003666 0.6943111407035273 0.0
    vertex 22.08608171201346 1.8975004014660535 0.0
  endloop
endfacet
facet normal 0.0 0.0 -1.0
  outer loop
    vertex 27.41412853003666 0.6943111407035273 0.0
    vertex 22.63854780266353 2.8784991855813646 0.0
    vertex 27.430367154412284 1.8056410190598289 0.0
  endloop
endfacet
facet normal 0.0 0.0 -1.0
  outer loop
    vertex 27.41412853003666 0.6943111407035273 0.0
    vertex 27.430367154412284 1.8056410190598289 0.0
    vertex 75.72347482947175 8.890781924249305 0.0
  endloop
endfacet
facet normal 0.0 0.0 -1.0
  outer loop
    vertex 75.72347482947175 8.890781924249305 0.0
    vertex 27.430367154412284 1.8056410190598289 0.0
    vertex 75.73105312725387 10.000642436544227 0.0
  endloop
endfacet
facet normal 0.0 0.0 -1.0
  outer loop
    vertex 75.72347482947175 8.890781924249305 0.0
    vertex 75.73105312725387 10.000642436544227 0.0
    vertex 77.05250448308908 8.605938809061216 0.0
  endloop
endfacet
facet normal 0.0 0.0 -1.0
  outer loop
    vertex 77.05250448308908 8.605938809061216 0.0
    vertex 75.73105312725387 10.000642436544227 0.0
    vertex 77.03603256031928 9.77039054792574 0.0
  endloop
endfacet
facet normal 0.0 0.0 -1.0
  outer loop
    vertex 77.05250448308908 8.605938809061216 0.0
    vertex 77.03603256031928 9.77039054792574 0.0
    vertex 78.23422964241827 9.242105769329402 0.0
  endloop
endfacet
facet normal 0.0 0.0 -1.0
  outer loop
    vertex 77.05250448308908 8.605938809061216 0.0
    vertex 78.23422964241827 9.242105769329402 0.0
    vertex 78.23716528721634 7.919301666424262 0.0
  endloop
endfacet
facet normal 0.0 0.0 -1.0
  outer loop
    vertex 78.23716528721634 7.919301666424262 0.0
    vertex 78.23422964241827 9.242105769329402 0.0
    vertex 79.2720168228256 8.44350773337555 0.0
  endloop
endfacet
facet normal 0.0 0.0 -1.0
  outer loop
    vertex 78.23716528721634 7.919301666424262 0.0
    vertex 79.2720168228256 8.44350773337555 0.0
    vertex 79.15166211853716 6.900190616543886 0.0
  endloop
endfacet
facet normal 0.0 0.0 -1.0
  outer loop
    vertex 79.15166211853716 6.900190616543886 0.0
    vertex 79.2720168228256 8.44350773337555 0.0
    vertex 79.70695843912982 5.647278560130197 0.0
  endloop
endfacet
facet normal 0.0 0.0 -1.0
  outer loop
    vertex 79.70695843912982 5.647278560130197 0.0
    vertex 79.2720168228256 8.44350773337555 0.0
    vertex 80.0895991877069 7.420609824744274 0.0
  endloop
endfacet
facet normal 0.0 0.0 -1.0
  outer loop
    vertex 79.70695843912982 5.647278560130197 0.0
    vertex 80.0895991877069 7.420609824744274 0.0
    vertex 79.85079442632752 4.353856274775551 0.0
  endloop
endfacet
facet normal 0.0 0.0 -1.0
  outer loop
    vertex -4.355645420603927 -4.139181493506946 0.0
    vertex -4.166633416981053 -6.7323490716266265 0.0
    vertex -4.417886401915195 -5.447190329521656 0.0
  endloop
endfacet
facet normal 0.0 0.0 -1.0
  outer loop
    vertex -4.166633416981053 -6.7323490716266265 0.0
    vertex -4.355645420603927 -4.139181493506946 0.0
    vertex -3.98349665544065 -2.883687028590993 0.0
  endloop
endfacet
facet normal 0.0 0.0 -1.0
  outer loop
    vertex -4.166633416981053 -6.7323490716266265 0.0
    vertex -3.98349665544065 -2.883687028590993 0.0
    vertex -3.6163630857370745 -7.920609824744304 0.0
  endloop
endfacet
facet normal 0.0 0.0 -1.0
  outer loop
    vertex -3.6163630857370745 -7.920609824744304 0.0
    vertex -3.98349665544065 -2.883687028590993 0.0
    vertex -3.322882463554662 -1.7530456423300926 0.0
  endloop
endfacet
facet normal 0.0 0.0 -1.0
  outer loop
    vertex -3.6163630857370745 -7.920609824744304 0.0
    vertex -3.322882463554662 -1.7530456423300926 0.0
    vertex -3.3775583243576905 -4.8538562747755565 0.0
  endloop
endfacet
facet normal 0.0 0.0 -1.0
  outer loop
    vertex -3.3775583243576905 -4.8538562747755565 0.0
    vertex -3.322882463554662 -1.7530456423300926 0.0
    vertex -3.2320479722211592 -4.0888618696544485 0.0
  endloop
endfacet
facet normal 0.0 0.0 -1.0
  outer loop
    vertex -3.2320479722211592 -4.0888618696544485 0.0
    vertex -3.322882463554662 -1.7530456423300926 0.0
    vertex -3.1341572047052653 -3.574218833175286 0.0
  endloop
endfacet
facet normal 0.0 0.0 -1.0
  outer loop
    vertex -3.1341572047052653 -3.574218833175286 0.0
    vertex -3.322882463554662 -1.7530456423300926 0.0
    vertex -2.411865917440335 -0.8124022946402958 0.0
  endloop
endfacet
facet normal 0.0 0.0 -1.0
  outer loop
    vertex -3.1341572047052653 -3.574218833175286 0.0
    vertex -2.411865917440335 -0.8124022946402958 0.0
    vertex -2.524945996375091 -2.4228814409924535 0.0
  endloop
endfacet
facet normal 0.0 0.0 -1.0
  outer loop
    vertex -2.524945996375091 -2.4228814409924535 0.0
    vertex -2.411865917440335 -0.8124022946402958 0.0
    vertex -1.6038824570377221 -1.5018179016551096 0.0
  endloop
endfacet
facet normal 0.0 0.0 -1.0
  outer loop
    vertex -1.6038824570377221 -1.5018179016551096 0.0
    vertex -2.411865917440335 -0.8124022946402958 0.0
    vertex -1.302937698139996 -0.11595469482640634 0.0
  endloop
endfacet
facet normal 0.0 0.0 -1.0
  outer loop
    vertex -1.6038824570377221 -1.5018179016551096 0.0
    vertex -1.302937698139996 -0.11595469482640634 0.0
    vertex -0.4525450648549152 -0.89260669332495 0.0
  endloop
endfacet
facet normal 0.0 0.0 -1.0
  outer loop
    vertex -0.4525450648549152 -0.89260669332495 0.0
    vertex -1.302937698139996 -0.11595469482640634 0.0
    vertex -0.04843894148190055 0.30000000000000004 0.0
  endloop
endfacet
facet normal 0.0 0.0 -1.0
  outer loop
    vertex -0.4525450648549152 -0.89260669332495 0.0
    vertex -0.04843894148190055 0.30000000000000004 0.0
    vertex 0.03431790558095429 -0.8000000000000084 0.0
  endloop
endfacet
facet normal 0.0 0.0 -1.0
  outer loop
    vertex 0.03431790558095429 -0.8000000000000084 0.0
    vertex -0.04843894148190055 0.30000000000000004 0.0
    vertex 76.4389181963889 0.30000000000000004 0.0
  endloop
endfacet
facet normal 0.0 0.0 -1.0
  outer loop
    vertex 0.03431790558095429 -0.8000000000000084 0.0
    vertex 76.4389181963889 0.30000000000000004 0.0
    vertex 42.860414999999996 -0.7999999999999999 0.0
  endloop
endfacet
facet normal 0.0 0.0 -1.0
  outer loop
    vertex 42.860414999999996 -0.7999999999999999 0.0
    vertex 76.4389181963889 0.30000000000000004 0.0
    vertex 76.52167504345168 -0.7999999999999929 0.0
  endloop
endfacet
facet normal 0.0 0.0 -1.0
  outer loop
    vertex 76.52167504345168 -0.7999999999999929 0.0
    vertex 76.4389181963889 0.30000000000000004 0.0
    vertex 76.92578116682473 0.3926066933249518 0.0
  endloop
endfacet
facet normal 0.0 0.0 -1.0
  outer loop
    vertex 76.52167504345168 -0.7999999999999929 0.0
    vertex 76.92578116682473 0.3926066933249518 0.0
    vertex 77.77617380010976 -0.3840453051735974 0.0
  endloop
endfacet
facet normal 0.0 0.0 -1.0
  outer loop
    vertex 77.77617380010976 -0.3840453051735974 0.0
    vertex 76.92578116682473 0.3926066933249518 0.0
    vertex 78.07711855900752 1.0018179016551083 0.0
  endloop
endfacet
facet normal 0.0 0.0 -1.0
  outer loop
    vertex 77.77617380010976 -0.3840453051735974 0.0
    vertex 78.07711855900752 1.0018179016551083 0.0
    vertex 78.88510201941011 0.3124022946402823 0.0
  endloop
endfacet
facet normal 0.0 0.0 -1.0
  outer loop
    vertex 78.88510201941011 0.3124022946402823 0.0
    vertex 78.07711855900752 1.0018179016551083 0.0
    vertex 78.9981820983449 1.9228814409924795 0.0
  endloop
endfacet
facet normal 0.0 0.0 -1.0
  outer loop
    vertex 78.88510201941011 0.3124022946402823 0.0
    vertex 78.9981820983449 1.9228814409924795 0.0
    vertex 79.79611856552445 1.2530456423300722 0.0
  endloop
endfacet
facet normal 0.0 0.0 -1.0
  outer loop
    vertex 79.79611856552445 1.2530456423300722 0.0
    vertex 78.9981820983449 1.9228814409924795 0.0
    vertex 79.60739330667506 3.0742188331752756 0.0
  endloop
endfacet
facet normal 0.0 0.0 -1.0
  outer loop
    vertex 79.79611856552445 1.2530456423300722 0.0
    vertex 79.60739330667506 3.0742188331752756 0.0
    vertex 79.705284074191 3.58886186965446 0.0
  endloop
endfacet
facet normal 0.0 0.0 -1.0
  outer loop
    vertex 79.79611856552445 1.2530456423300722 0.0
    vertex 79.705284074191 3.58886186965446 0.0
    vertex 79.85079442632752 4.353856274775551 0.0
  endloop
endfacet
facet normal 0.0 0.0 -1.0
  outer loop
    vertex 79.79611856552445 1.2530456423300722 0.0
    vertex 79.85079442632752 4.353856274775551 0.0
    vertex 80.45673275741045 2.3836870285909666 0.0
  endloop
endfacet
facet normal 0.0 0.0 -1.0
  outer loop
    vertex 80.45673275741045 2.3836870285909666 0.0
    vertex 79.85079442632752 4.353856274775551 0.0
    vertex 80.0895991877069 7.420609824744274 0.0
  endloop
endfacet
facet normal 0.0 0.0 -1.0
  outer loop
    vertex 80.45673275741045 2.3836870285909666 0.0
    vertex 80.0895991877069 7.420609824744274 0.0
    vertex 80.63986951895089 6.2323490716265955 0.0
  endloop
endfacet
facet normal 0.0 0.0 -1.0
  outer loop
    vertex 80.45673275741045 2.3836870285909666 0.0
    vertex 80.63986951895089 6.2323490716265955 0.0
    vertex 80.82888152257372 3.6391814935069164 0.0
  endloop
endfacet
facet normal 0.0 0.0 -1.0
  outer loop
    vertex 80.82888152257372 3.6391814935069164 0.0
    vertex 80.63986951895089 6.2323490716265955 0.0
    vertex 80.891122503885 4.947190329521623 0.0
  endloop
endfacet
facet normal 0.0 0.0 -1.0
  outer loop
    vertex -3.6163630857370745 -7.920609824744304 0.0
    vertex -3.233722337160026 -6.147278560130208 0.0
    vertex -2.7987807208557616 -8.943507733375577 0.0
  endloop
endfacet
facet normal 0.0 0.0 -1.0
  outer loop
    vertex -3.233722337160026 -6.147278560130208 0.0
    vertex -3.6163630857370745 -7.920609824744304 0.0
    vertex -3.3775583243576905 -4.8538562747755565 0.0
  endloop
endfacet
facet normal 0.0 0.0 -1.0
  outer loop
    vertex -2.7987807208557616 -8.943507733375577 0.0
    vertex -3.233722337160026 -6.147278560130208 0.0
    vertex -2.6784260165673675 -7.400190616543891 0.0
  endloop
endfacet
facet normal 0.0 0.0 -1.0
  outer loop
    vertex -2.7987807208557616 -8.943507733375577 0.0
    vertex -2.6784260165673675 -7.400190616543891 0.0
    vertex -1.7609935404484234 -9.742105769329418 0.0
  endloop
endfacet
facet normal 0.0 0.0 -1.0
  outer loop
    vertex -1.7609935404484234 -9.742105769329418 0.0
    vertex -2.6784260165673675 -7.400190616543891 0.0
    vertex -1.7639291852465087 -8.419301666424243 0.0
  endloop
endfacet
facet normal 0.0 0.0 -1.0
  outer loop
    vertex -1.7609935404484234 -9.742105769329418 0.0
    vertex -1.7639291852465087 -8.419301666424243 0.0
    vertex -0.5792683811192968 -9.105938809061188 0.0
  endloop
endfacet
facet normal 0.0 0.0 -1.0
  outer loop
    vertex -1.7609935404484234 -9.742105769329418 0.0
    vertex -0.5792683811192968 -9.105938809061188 0.0
    vertex -0.5627964583494148 -10.270390547925748 0.0
  endloop
endfacet
facet normal 0.0 0.0 -1.0
  outer loop
    vertex -0.5627964583494148 -10.270390547925748 0.0
    vertex -0.5792683811192968 -9.105938809061188 0.0
    vertex 0.7497612724980871 -9.390781924249303 0.0
  endloop
endfacet
facet normal 0.0 0.0 -1.0
  outer loop
    vertex -0.5627964583494148 -10.270390547925748 0.0
    vertex 0.7497612724980871 -9.390781924249303 0.0
    vertex 0.7421829747159883 -10.500642436544227 0.0
  endloop
endfacet
facet normal 0.0 0.0 -1.0
  outer loop
    vertex 0.7421829747159883 -10.500642436544227 0.0
    vertex 0.7497612724980871 -9.390781924249303 0.0
    vertex 49.042586981011176 -2.3056888592964615 0.0
  endloop
endfacet
facet normal 0.0 0.0 -1.0
  outer loop
    vertex 49.042586981011176 -2.3056888592964615 0.0
    vertex 0.7497612724980871 -9.390781924249303 0.0
    vertex 49.05910757193314 -1.194311140703517 0.0
  endloop
endfacet
facet normal 0.0 0.0 -1.0
  outer loop
    vertex 49.042586981011176 -2.3056888592964615 0.0
    vertex 49.05910757193314 -1.194311140703517 0.0
    vertex 54.22803617604725 -3.476676464471426 0.0
  endloop
endfacet
facet normal 0.0 0.0 -1.0
  outer loop
    vertex 54.22803617604725 -3.476676464471426 0.0
    vertex 49.05910757193314 -1.194311140703517 0.0
    vertex 54.22803617604725 -2.3615680358720432 0.0
  endloop
endfacet
facet normal -0.0 -0.0 1.0
  outer loop
    vertex -3.6163630857370745 -7.920609824744304 55.0
    vertex -3.233722337160026 -6.147278560130208 55.0
    vertex -3.3775583243576905 -4.8538562747755565 55.0
  endloop
endfacet
facet normal -0.0 -0.0 1.0
  outer loop
    vertex -3.233722337160026 -6.147278560130208 55.0
    vertex -3.6163630857370745 -7.920609824744304 55.0
    vertex -2.7987807208557616 -8.943507733375577 55.0
  endloop
endfacet
facet normal -0.0 -0.0 1.0
  outer loop
    vertex -3.233722337160026 -6.147278560130208 55.0
    vertex -2.7987807208557616 -8.943507733375577 55.0
    vertex -2.6784260165673675 -7.400190616543891 55.0
  endloop
endfacet
facet normal -0.0 -0.0 1.0
  outer loop
    vertex -2.6784260165673675 -7.400190616543891 55.0
    vertex -2.7987807208557616 -8.943507733375577 55.0
    vertex -1.7609935404484234 -9.742105769329418 55.0
  endloop
endfacet
facet normal -0.0 -0.0 1.0
  outer loop
    vertex -2.6784260165673675 -7.400190616543891 55.0
    vertex -1.7609935404484234 -9.742105769329418 55.0
    vertex -1.7639291852465087 -8.419301666424243 55.0
  endloop
endfacet
facet normal -0.0 -0.0 1.0
  outer loop
    vertex -1.7639291852465087 -8.419301666424243 55.0
    vertex -1.7609935404484234 -9.742105769329418 55.0
    vertex -0.5792683811192968 -9.105938809061188 55.0
  endloop
endfacet
facet normal -0.0 -0.0 1.0
  outer loop
    vertex -0.5792683811192968 -9.105938809061188 55.0
    vertex -1.7609935404484234 -9.742105769329418 55.0
    vertex -0.5627964583494148 -10.270390547925748 55.0
  endloop
endfacet
facet normal -0.0 -0.0 1.0
  outer loop
    vertex -0.5792683811192968 -9.105938809061188 55.0
    vertex -0.5627964583494148 -10.270390547925748 55.0
    vertex 0.7497612724980871 -9.390781924249303 55.0
  endloop
endfacet
facet normal -0.0 -0.0 1.0
  outer loop
    vertex 0.7497612724980871 -9.390781924249303 55.0
    vertex -0.5627964583494148 -10.270390547925748 55.0
    vertex 0.7421829747159883 -10.500642436544227 55.0
  endloop
endfacet
facet normal -0.0 -0.0 1.0
  outer loop
    vertex 0.7497612724980871 -9.390781924249303 55.0
    vertex 0.7421829747159883 -10.500642436544227 55.0
    vertex 49.042586981011176 -2.3056888592964615 55.0
  endloop
endfacet
facet normal -0.0 -0.0 1.0
  outer loop
    vertex 0.7497612724980871 -9.390781924249303 55.0
    vertex 49.042586981011176 -2.3056888592964615 55.0
    vertex 49.05910757193314 -1.194311140703517 55.0
  endloop
endfacet
facet normal -0.0 -0.0 1.0
  outer loop
    vertex 49.05910757193314 -1.194311140703517 55.0
    vertex 49.042586981011176 -2.3056888592964615 55.0
    vertex 54.22803617604725 -3.476676464471426 55.0
  endloop
endfacet
facet normal -0.0 -0.0 1.0
  outer loop
    vertex 49.05910757193314 -1.194311140703517 55.0
    vertex 54.22803617604725 -3.476676464471426 55.0
    vertex 54.22803617604725 -2.3615680358720432 55.0
  endloop
endfacet
facet normal -0.0 -0.0 1.0
  outer loop
    vertex -4.166633416981053 -6.7323490716266265 55.0
    vertex -4.355645420603927 -4.139181493506946 55.0
    vertex -4.417886401915195 -5.447190329521656 55.0
  endloop
endfacet
facet normal -0.0 -0.0 1.0
  outer loop
    vertex -4.355645420603927 -4.139181493506946 55.0
    vertex -4.166633416981053 -6.7323490716266265 55.0
    vertex -3.98349665544065 -2.883687028590993 55.0
  endloop
endfacet
facet normal -0.0 -0.0 1.0
  outer loop
    vertex -3.98349665544065 -2.883687028590993 55.0
    vertex -4.166633416981053 -6.7323490716266265 55.0
    vertex -3.6163630857370745 -7.920609824744304 55.0
  endloop
endfacet
facet normal -0.0 -0.0 1.0
  outer loop
    vertex -3.98349665544065 -2.883687028590993 55.0
    vertex -3.6163630857370745 -7.920609824744304 55.0
    vertex -3.322882463554662 -1.7530456423300926 55.0
  endloop
endfacet
facet normal -0.0 -0.0 1.0
  outer loop
    vertex -3.322882463554662 -1.7530456423300926 55.0
    vertex -3.6163630857370745 -7.920609824744304 55.0
    vertex -3.3775583243576905 -4.8538562747755565 55.0
  endloop
endfacet
facet normal -0.0 -0.0 1.0
  outer loop
    vertex -3.322882463554662 -1.7530456423300926 55.0
    vertex -3.3775583243576905 -4.8538562747755565 55.0
    vertex -3.2320479722211592 -4.0888618696544485 55.0
  endloop
endfacet
facet normal -0.0 -0.0 1.0
  outer loop
    vertex -3.322882463554662 -1.7530456423300926 55.0
    vertex -3.2320479722211592 -4.0888618696544485 55.0
    vertex -3.1341572047052653 -3.574218833175286 55.0
  endloop
endfacet
facet normal -0.0 -0.0 1.0
  outer loop
    vertex -3.322882463554662 -1.7530456423300926 55.0
    vertex -3.1341572047052653 -3.574218833175286 55.0
    vertex -2.411865917440335 -0.8124022946402958 55.0
  endloop
endfacet
facet normal -0.0 -0.0 1.0
  outer loop
    vertex -2.411865917440335 -0.8124022946402958 55.0
    vertex -3.1341572047052653 -3.574218833175286 55.0
    vertex -2.524945996375091 -2.4228814409924535 55.0
  endloop
endfacet
facet normal -0.0 -0.0 1.0
  outer loop
    vertex -2.411865917440335 -0.8124022946402958 55.0
    vertex -2.524945996375091 -2.4228814409924535 55.0
    vertex -1.6038824570377221 -1.5018179016551096 55.0
  endloop
endfacet
facet normal -0.0 -0.0 1.0
  outer loop
    vertex -2.411865917440335 -0.8124022946402958 55.0
    vertex -1.6038824570377221 -1.5018179016551096 55.0
    vertex -1.302937698139996 -0.11595469482640634 55.0
  endloop
endfacet
facet normal -0.0 -0.0 1.0
  outer loop
    vertex -1.302937698139996 -0.11595469482640634 55.0
    vertex -1.6038824570377221 -1.5018179016551096 55.0
    vertex -0.4525450648549152 -0.89260669332495 55.0
  endloop
endfacet
facet normal -0.0 -0.0 1.0
  outer loop
    vertex -1.302937698139996 -0.11595469482640634 55.0
    vertex -0.4525450648549152 -0.89260669332495 55.0
    vertex -0.04843894148190055 0.30000000000000004 55.0
  endloop
endfacet
facet normal -0.0 -0.0 1.0
  outer loop
    vertex -0.04843894148190055 0.30000000000000004 55.0
    vertex -0.4525450648549152 -0.89260669332495 55.0
    vertex 0.03431790558095429 -0.8000000000000084 55.0
  endloop
endfacet
facet normal -0.0 -0.0 1.0
  outer loop
    vertex -0.04843894148190055 0.30000000000000004 55.0
    vertex 0.03431790558095429 -0.8000000000000084 55.0
    vertex 76.4389181963889 0.30000000000000004 55.0
  endloop
endfacet
facet normal -0.0 -0.0 1.0
  outer loop
    vertex 76.4389181963889 0.30000000000000004 55.0
    vertex 0.03431790558095429 -0.8000000000000084 55.0
    vertex 42.860414999999996 -0.7999999999999999 55.0
  endloop
endfacet
facet normal -0.0 -0.0 1.0
  outer loop
    vertex 76.4389181963889 0.30000000000000004 55.0
    vertex 42.860414999999996 -0.7999999999999999 55.0
    vertex 76.52167504345168 -0.7999999999999929 55.0
  endloop
endfacet
facet normal -0.0 -0.0 1.0
  outer loop
    vertex 76.4389181963889 0.30000000000000004 55.0
    vertex 76.52167504345168 -0.7999999999999929 55.0
    vertex 76.92578116682473 0.3926066933249518 55.0
  endloop
endfacet
facet normal -0.0 -0.0 1.0
  outer loop
    vertex 76.92578116682473 0.3926066933249518 55.0
    vertex 76.52167504345168 -0.7999999999999929 55.0
    vertex 77.77617380010976 -0.3840453051735974 55.0
  endloop
endfacet
facet normal -0.0 -0.0 1.0
  outer loop
    vertex 76.92578116682473 0.3926066933249518 55.0
    vertex 77.77617380010976 -0.3840453051735974 55.0
    vertex 78.07711855900752 1.0018179016551083 55.0
  endloop
endfacet
facet normal -0.0 -0.0 1.0
  outer loop
    vertex 78.07711855900752 1.0018179016551083 55.0
    vertex 77.77617380010976 -0.3840453051735974 55.0
    vertex 78.88510201941011 0.3124022946402823 55.0
  endloop
endfacet
facet normal -0.0 -0.0 1.0
  outer loop
    vertex 78.07711855900752 1.0018179016551083 55.0
    vertex 78.88510201941011 0.3124022946402823 55.0
    vertex 78.9981820983449 1.9228814409924795 55.0
  endloop
endfacet
facet normal -0.0 -0.0 1.0
  outer loop
    vertex 78.9981820983449 1.9228814409924795 55.0
    vertex 78.88510201941011 0.3124022946402823 55.0
    vertex 79.79611856552445 1.2530456423300722 55.0
  endloop
endfacet
facet normal -0.0 -0.0 1.0
  outer loop
    vertex 78.9981820983449 1.9228814409924795 55.0
    vertex 79.79611856552445 1.2530456423300722 55.0
    vertex 79.60739330667506 3.0742188331752756 55.0
  endloop
endfacet
facet normal -0.0 -0.0 1.0
  outer loop
    vertex 79.60739330667506 3.0742188331752756 55.0
    vertex 79.79611856552445 1.2530456423300722 55.0
    vertex 79.705284074191 3.58886186965446 55.0
  endloop
endfacet
facet normal -0.0 -0.0 1.0
  outer loop
    vertex 79.705284074191 3.58886186965446 55.0
    vertex 79.79611856552445 1.2530456423300722 55.0
    vertex 79.85079442632752 4.353856274775551 55.0
  endloop
endfacet
facet normal -0.0 -0.0 1.0
  outer loop
    vertex 79.85079442632752 4.353856274775551 55.0
    vertex 79.79611856552445 1.2530456423300722 55.0
    vertex 80.45673275741045 2.3836870285909666 55.0
  endloop
endfacet
facet normal -0.0 -0.0 1.0
  outer loop
    vertex 79.85079442632752 4.353856274775551 55.0
    vertex 80.45673275741045 2.3836870285909666 55.0
    vertex 80.0895991877069 7.420609824744274 55.0
  endloop
endfacet
facet normal -0.0 -0.0 1.0
  outer loop
    vertex 80.0895991877069 7.420609824744274 55.0
    vertex 80.45673275741045 2.3836870285909666 55.0
    vertex 80.63986951895089 6.2323490716265955 55.0
  endloop
endfacet
facet normal -0.0 -0.0 1.0
  outer loop
    vertex 80.63986951895089 6.2323490716265955 55.0
    vertex 80.45673275741045 2.3836870285909666 55.0
    vertex 80.82888152257372 3.6391814935069164 55.0
  endloop
endfacet
facet normal -0.0 -0.0 1.0
  outer loop
    vertex 80.63986951895089 6.2323490716265955 55.0
    vertex 80.82888152257372 3.6391814935069164 55.0
    vertex 80.891122503885 4.947190329521623 55.0
  endloop
endfacet
facet normal -0.0 -0.0 1.0
  outer loop
    vertex 27.41412853003666 0.6943111407035273 55.0
    vertex 22.63854780266353 2.8784991855813646 55.0
    vertex 22.08608171201346 1.8975004014660535 55.0
  endloop
endfacet
facet normal -0.0 -0.0 1.0
  outer loop
    vertex 22.63854780266353 2.8784991855813646 55.0
    vertex 27.41412853003666 0.6943111407035273 55.0
    vertex 27.430367154412284 1.8056410190598289 55.0
  endloop
endfacet
facet normal -0.0 -0.0 1.0
  outer loop
    vertex 27.430367154412284 1.8056410190598289 55.0
    vertex 27.41412853003666 0.6943111407035273 55.0
    vertex 75.72347482947175 8.890781924249305 55.0
  endloop
endfacet
facet normal -0.0 -0.0 1.0
  outer loop
    vertex 27.430367154412284 1.8056410190598289 55.0
    vertex 75.72347482947175 8.890781924249305 55.0
    vertex 75.73105312725387 10.000642436544227 55.0
  endloop
endfacet
facet normal -0.0 -0.0 1.0
  outer loop
    vertex 75.73105312725387 10.000642436544227 55.0
    vertex 75.72347482947175 8.890781924249305 55.0
    vertex 77.05250448308908 8.605938809061216 55.0
  endloop
endfacet
facet normal -0.0 -0.0 1.0
  outer loop
    vertex 75.73105312725387 10.000642436544227 55.0
    vertex 77.05250448308908 8.605938809061216 55.0
    vertex 77.03603256031928 9.77039054792574 55.0
  endloop
endfacet
facet normal -0.0 -0.0 1.0
  outer loop
    vertex 77.03603256031928 9.77039054792574 55.0
    vertex 77.05250448308908 8.605938809061216 55.0
    vertex 78.23422964241827 9.242105769329402 55.0
  endloop
endfacet
facet normal -0.0 -0.0 1.0
  outer loop
    vertex 78.23422964241827 9.242105769329402 55.0
    vertex 77.05250448308908 8.605938809061216 55.0
    vertex 78.23716528721634 7.919301666424262 55.0
  endloop
endfacet
facet normal -0.0 -0.0 1.0
  outer loop
    vertex 78.23422964241827 9.242105769329402 55.0
    vertex 78.23716528721634 7.919301666424262 55.0
    vertex 79.2720168228256 8.44350773337555 55.0
  endloop
endfacet
facet normal -0.0 -0.0 1.0
  outer loop
    vertex 79.2720168228256 8.44350773337555 55.0
    vertex 78.23716528721634 7.919301666424262 55.0
    vertex 79.15166211853716 6.900190616543886 55.0
  endloop
endfacet
facet normal -0.0 -0.0 1.0
  outer loop
    vertex 79.2720168228256 8.44350773337555 55.0
    vertex 79.15166211853716 6.900190616543886 55.0
    vertex 79.70695843912982 5.647278560130197 55.0
  endloop
endfacet
facet normal -0.0 -0.0 1.0
  outer loop
    vertex 79.2720168228256 8.44350773337555 55.0
    vertex 79.70695843912982 5.647278560130197 55.0
    vertex 80.0895991877069 7.420609824744274 55.0
  endloop
endfacet
facet normal -0.0 -0.0 1.0
  outer loop
    vertex 80.0895991877069 7.420609824744274 55.0
    vertex 79.70695843912982 5.647278560130197 55.0
    vertex 79.85079442632752 4.353856274775551 55.0
  endloop
endfacet
facet normal 1.0 0.0 0.0
  outer loop
    vertex 54.22803617604725 -2.3615680358720432 0.0
    vertex 54.22803617604725 -3.476676464471426 55.0
    vertex 54.22803617604725 -3.476676464471426 0.0
  endloop
endfacet
facet normal 1.0 0.0 0.0
  outer loop
    vertex 54.22803617604725 -3.476676464471426 55.0
    vertex 54.22803617604725 -2.3615680358720432 0.0
    vertex 54.22803617604725 -2.3615680358720432 55.0
  endloop
endfacet
facet normal -0.2202751404821988 -0.9754377799150223 -0.0
  outer loop
    vertex 54.22803617604725 -3.476676464471426 55.0
    vertex 49.042586981011176 -2.3056888592964615 0.0
    vertex 54.22803617604725 -3.476676464471426 0.0
  endloop
endfacet
facet normal -0.2202751404821988 -0.9754377799150223 -0.0
  outer loop
    vertex 49.042586981011176 -2.3056888592964615 0.0
    vertex 54.22803617604725 -3.476676464471426 55.0
    vertex 49.042586981011176 -2.3056888592964615 55.0
  endloop
endfacet
facet normal 0.167275782267995 -0.9859101443167275 0.0
  outer loop
    vertex 49.042586981011176 -2.3056888592964615 55.0
    vertex 0.7421829747159883 -10.500642436544227 0.0
    vertex 49.042586981011176 -2.3056888592964615 0.0
  endloop
endfacet
facet normal 0.167275782267995 -0.9859101443167275 0.0
  outer loop
    vertex 0.7421829747159883 -10.500642436544227 0.0
    vertex 49.042586981011176 -2.3056888592964615 55.0
    vertex 0.7421829747159883 -10.500642436544227 55.0
  endloop
endfacet
facet normal -0.17375708481920646 -0.9847885435336518 -0.0
  outer loop
    vertex 0.7421829747159883 -10.500642436544227 55.0
    vertex -0.5627964583494148 -10.270390547925748 0.0
    vertex 0.7421829747159883 -10.500642436544227 0.0
  endloop
endfacet
facet normal -0.17375708481920646 -0.9847885435336518 -0.0
  outer loop
    vertex -0.5627964583494148 -10.270390547925748 0.0
    vertex 0.7421829747159883 -10.500642436544227 55.0
    vertex -0.5627964583494148 -10.270390547925748 55.0
  endloop
endfacet
facet normal -0.4034282365854804 -0.915011288414263 -0.0
  outer loop
    vertex -0.5627964583494148 -10.270390547925748 55.0
    vertex -1.7609935404484234 -9.742105769329418 0.0
    vertex -0.5627964583494148 -10.270390547925748 0.0
  endloop
endfacet
facet normal -0.4034282365854804 -0.915011288414263 -0.0
  outer loop
    vertex -1.7609935404484234 -9.742105769329418 0.0
    vertex -0.5627964583494148 -10.270390547925748 55.0
    vertex -1.7609935404484234 -9.742105769329418 55.0
  endloop
endfacet
facet normal -0.6098547799191224 -0.792513184376007 -0.0
  outer loop
    vertex -1.7609935404484234 -9.742105769329418 55.0
    vertex -2.7987807208557616 -8.943507733375577 0.0
    vertex -1.7609935404484234 -9.742105769329418 0.0
  endloop
endfacet
facet normal -0.6098547799191224 -0.792513184376007 -0.0
  outer loop
    vertex -2.7987807208557616 -8.943507733375577 0.0
    vertex -1.7609935404484234 -9.742105769329418 55.0
    vertex -2.7987807208557616 -8.943507733375577 55.0
  endloop
endfacet
facet normal -0.7811428914960554 -0.6243522908304108 -0.0
  outer loop
    vertex -3.6163630857370745 -7.920609824744304 55.0
    vertex -2.7987807208557616 -8.943507733375577 0.0
    vertex -2.7987807208557616 -8.943507733375577 55.0
  endloop
endfacet
facet normal -0.7811428914960554 -0.6243522908304108 -0.0
  outer loop
    vertex -2.7987807208557616 -8.943507733375577 0.0
    vertex -3.6163630857370745 -7.920609824744304 55.0
    vertex -3.6163630857370745 -7.920609824744304 0.0
  endloop
endfacet
facet normal -0.9074233437270771 -0.4202176522460368 -0.0
  outer loop
    vertex -4.166633416981053 -6.7323490716266265 55.0
    vertex -3.6163630857370745 -7.920609824744304 0.0
    vertex -3.6163630857370745 -7.920609824744304 55.0
  endloop
endfacet
facet normal -0.9074233437270771 -0.4202176522460368 -0.0
  outer loop
    vertex -3.6163630857370745 -7.920609824744304 0.0
    vertex -4.166633416981053 -6.7323490716266265 55.0
    vertex -4.166633416981053 -6.7323490716266265 0.0
  endloop
endfacet
facet normal -0.9814201469847642 -0.1918710376591632 -0.0
  outer loop
    vertex -4.417886401915195 -5.447190329521656 55.0
    vertex -4.166633416981053 -6.7323490716266265 0.0
    vertex -4.166633416981053 -6.7323490716266265 55.0
  endloop
endfacet
facet normal -0.9814201469847642 -0.1918710376591632 -0.0
  outer loop
    vertex -4.166633416981053 -6.7323490716266265 0.0
    vertex -4.417886401915195 -5.447190329521656 55.0
    vertex -4.417886401915195 -5.447190329521656 0.0
  endloop
endfacet
facet normal -0.9988697754149308 0.04753074544466764 0.0
  outer loop
    vertex -4.355645420603927 -4.139181493506946 55.0
    vertex -4.417886401915195 -5.447190329521656 0.0
    vertex -4.417886401915195 -5.447190329521656 55.0
  endloop
endfacet
facet normal -0.9988697754149308 0.04753074544466764 0.0
  outer loop
    vertex -4.417886401915195 -5.447190329521656 0.0
    vertex -4.355645420603927 -4.139181493506946 55.0
    vertex -4.355645420603927 -4.139181493506946 0.0
  endloop
endfacet
facet normal -0.9587668215042419 0.2841939161605214 0.0
  outer loop
    vertex -3.98349665544065 -2.883687028590993 55.0
    vertex -4.355645420603927 -4.139181493506946 0.0
    vertex -4.355645420603927 -4.139181493506946 55.0
  endloop
endfacet
facet normal -0.9587668215042419 0.2841939161605214 0.0
  outer loop
    vertex -4.355645420603927 -4.139181493506946 0.0
    vertex -3.98349665544065 -2.883687028590993 55.0
    vertex -3.98349665544065 -2.883687028590993 0.0
  endloop
endfacet
facet normal -0.8634219253520014 0.5044824861394526 0.0
  outer loop
    vertex -3.322882463554662 -1.7530456423300926 55.0
    vertex -3.98349665544065 -2.883687028590993 0.0
    vertex -3.98349665544065 -2.883687028590993 55.0
  endloop
endfacet
facet normal -0.8634219253520014 0.5044824861394526 0.0
  outer loop
    vertex -3.98349665544065 -2.883687028590993 0.0
    vertex -3.322882463554662 -1.7530456423300926 55.0
    vertex -3.322882463554662 -1.7530456423300926 0.0
  endloop
endfacet
facet normal -0.7183286408945095 0.6957039339191974 0.0
  outer loop
    vertex -2.411865917440335 -0.8124022946402958 55.0
    vertex -3.322882463554662 -1.7530456423300926 0.0
    vertex -3.322882463554662 -1.7530456423300926 55.0
  endloop
endfacet
facet normal -0.7183286408945095 0.6957039339191974 0.0
  outer loop
    vertex -3.322882463554662 -1.7530456423300926 0.0
    vertex -2.411865917440335 -0.8124022946402958 55.0
    vertex -2.411865917440335 -0.8124022946402958 0.0
  endloop
endfacet
facet normal -0.5318469099443786 0.8468405188597297 0.0
  outer loop
    vertex -2.411865917440335 -0.8124022946402958 55.0
    vertex -1.302937698139996 -0.11595469482640634 0.0
    vertex -2.411865917440335 -0.8124022946402958 0.0
  endloop
endfacet
facet normal -0.5318469099443786 0.8468405188597297 0.0
  outer loop
    vertex -1.302937698139996 -0.11595469482640634 0.0
    vertex -2.411865917440335 -0.8124022946402958 55.0
    vertex -1.302937698139996 -0.11595469482640634 55.0
  endloop
endfacet
facet normal -0.31472138154368545 0.9491840980543417 0.0
  outer loop
    vertex -1.302937698139996 -0.11595469482640634 55.0
    vertex -0.04843894148190055 0.30000000000000004 0.0
    vertex -1.302937698139996 -0.11595469482640634 0.0
  endloop
endfacet
facet normal -0.31472138154368545 0.9491840980543417 0.0
  outer loop
    vertex -0.04843894148190055 0.30000000000000004 0.0
    vertex -1.302937698139996 -0.11595469482640634 55.0
    vertex -0.04843894148190055 0.30000000000000004 55.0
  endloop
endfacet
facet normal 5.760687509490992e-19 1.0 0.0
  outer loop
    vertex -0.04843894148190055 0.30000000000000004 55.0
    vertex 76.4389181963889 0.30000000000000004 0.0
    vertex -0.04843894148190055 0.30000000000000004 0.0
  endloop
endfacet
facet normal 5.760687509490992e-19 1.0 0.0
  outer loop
    vertex 76.4389181963889 0.30000000000000004 0.0
    vertex -0.04843894148190055 0.30000000000000004 55.0
    vertex 76.4389181963889 0.30000000000000004 55.0
  endloop
endfacet
facet normal -0.18686070493950152 0.9823864193633342 0.0
  outer loop
    vertex 76.4389181963889 0.30000000000000004 55.0
    vertex 76.92578116682473 0.3926066933249518 0.0
    vertex 76.4389181963889 0.30000000000000004 0.0
  endloop
endfacet
facet normal -0.18686070493950152 0.9823864193633342 0.0
  outer loop
    vertex 76.92578116682473 0.3926066933249518 0.0
    vertex 76.4389181963889 0.30000000000000004 55.0
    vertex 76.92578116682473 0.3926066933249518 55.0
  endloop
endfacet
facet normal -0.467695612937858 0.8838895935798098 0.0
  outer loop
    vertex 76.92578116682473 0.3926066933249518 55.0
    vertex 78.07711855900752 1.0018179016551083 0.0
    vertex 76.92578116682473 0.3926066933249518 0.0
  endloop
endfacet
facet normal -0.467695612937858 0.8838895935798098 0.0
  outer loop
    vertex 78.07711855900752 1.0018179016551083 0.0
    vertex 76.92578116682473 0.3926066933249518 55.0
    vertex 78.07711855900752 1.0018179016551083 55.0
  endloop
endfacet
facet normal -0.7071067811865454 0.7071067811865498 0.0
  outer loop
    vertex 78.07711855900752 1.0018179016551083 55.0
    vertex 78.9981820983449 1.9228814409924795 0.0
    vertex 78.07711855900752 1.0018179016551083 0.0
  endloop
endfacet
facet normal -0.7071067811865454 0.7071067811865498 0.0
  outer loop
    vertex 78.9981820983449 1.9228814409924795 0.0
    vertex 78.07711855900752 1.0018179016551083 55.0
    vertex 78.9981820983449 1.9228814409924795 55.0
  endloop
endfacet
facet normal -0.8838895935798063 0.46769561293786477 0.0
  outer loop
    vertex 79.60739330667506 3.0742188331752756 55.0
    vertex 78.9981820983449 1.9228814409924795 0.0
    vertex 78.9981820983449 1.9228814409924795 55.0
  endloop
endfacet
facet normal -0.8838895935798063 0.46769561293786477 0.0
  outer loop
    vertex 78.9981820983449 1.9228814409924795 0.0
    vertex 79.60739330667506 3.0742188331752756 55.0
    vertex 79.60739330667506 3.0742188331752756 0.0
  endloop
endfacet
facet normal -0.9823864193633334 0.18686070493950627 0.0
  outer loop
    vertex 79.705284074191 3.58886186965446 55.0
    vertex 79.60739330667506 3.0742188331752756 0.0
    vertex 79.60739330667506 3.0742188331752756 55.0
  endloop
endfacet
facet normal -0.9823864193633334 0.18686070493950627 0.0
  outer loop
    vertex 79.60739330667506 3.0742188331752756 0.0
    vertex 79.705284074191 3.58886186965446 55.0
    vertex 79.705284074191 3.58886186965446 0.0
  endloop
endfacet
facet normal -0.982386419363336 0.18686070493949122 0.0
  outer loop
    vertex 79.85079442632752 4.353856274775551 55.0
    vertex 79.705284074191 3.58886186965446 0.0
    vertex 79.705284074191 3.58886186965446 55.0
  endloop
endfacet
facet normal -0.982386419363336 0.18686070493949122 0.0
  outer loop
    vertex 79.705284074191 3.58886186965446 0.0
    vertex 79.85079442632752 4.353856274775551 55.0
    vertex 79.85079442632752 4.353856274775551 0.0
  endloop
endfacet
facet normal -0.9938734074584341 -0.11052443144826166 -0.0
  outer loop
    vertex 79.70695843912982 5.647278560130197 55.0
    vertex 79.85079442632752 4.353856274775551 0.0
    vertex 79.85079442632752 4.353856274775551 55.0
  endloop
endfacet
facet normal -0.9938734074584341 -0.11052443144826166 -0.0
  outer loop
    vertex 79.85079442632752 4.353856274775551 0.0
    vertex 79.70695843912982 5.647278560130197 55.0
    vertex 79.70695843912982 5.647278560130197 0.0
  endloop
endfacet
facet normal -0.9142317586220647 -0.4051916725783078 -0.0
  outer loop
    vertex 79.15166211853716 6.900190616543886 55.0
    vertex 79.70695843912982 5.647278560130197 0.0
    vertex 79.70695843912982 5.647278560130197 55.0
  endloop
endfacet
facet normal -0.9142317586220647 -0.4051916725783078 -0.0
  outer loop
    vertex 79.70695843912982 5.647278560130197 0.0
    vertex 79.15166211853716 6.900190616543886 55.0
    vertex 79.15166211853716 6.900190616543886 0.0
  endloop
endfacet
facet normal -0.7442749586355891 -0.6678733307656416 -0.0
  outer loop
    vertex 78.23716528721634 7.919301666424262 55.0
    vertex 79.15166211853716 6.900190616543886 0.0
    vertex 79.15166211853716 6.900190616543886 55.0
  endloop
endfacet
facet normal -0.7442749586355891 -0.6678733307656416 -0.0
  outer loop
    vertex 79.15166211853716 6.900190616543886 0.0
    vertex 78.23716528721634 7.919301666424262 55.0
    vertex 78.23716528721634 7.919301666424262 0.0
  endloop
endfacet
facet normal -0.5014633400292985 -0.8651788939905205 -0.0
  outer loop
    vertex 78.23716528721634 7.919301666424262 55.0
    vertex 77.05250448308908 8.605938809061216 0.0
    vertex 78.23716528721634 7.919301666424262 0.0
  endloop
endfacet
facet normal -0.5014633400292985 -0.8651788939905205 -0.0
  outer loop
    vertex 77.05250448308908 8.605938809061216 0.0
    vertex 78.23716528721634 7.919301666424262 55.0
    vertex 77.05250448308908 8.605938809061216 55.0
  endloop
endfacet
facet normal -0.2095649958003997 -0.9777947190157956 -0.0
  outer loop
    vertex 77.05250448308908 8.605938809061216 55.0
    vertex 75.72347482947175 8.890781924249305 0.0
    vertex 77.05250448308908 8.605938809061216 0.0
  endloop
endfacet
facet normal -0.2095649958003997 -0.9777947190157956 -0.0
  outer loop
    vertex 75.72347482947175 8.890781924249305 0.0
    vertex 77.05250448308908 8.605938809061216 55.0
    vertex 75.72347482947175 8.890781924249305 55.0
  endloop
endfacet
facet normal 0.16727578226799467 -0.9859101443167275 0.0
  outer loop
    vertex 75.72347482947175 8.890781924249305 55.0
    vertex 27.41412853003666 0.6943111407035273 0.0
    vertex 75.72347482947175 8.890781924249305 0.0
  endloop
endfacet
facet normal 0.16727578226799467 -0.9859101443167275 0.0
  outer loop
    vertex 27.41412853003666 0.6943111407035273 0.0
    vertex 75.72347482947175 8.890781924249305 55.0
    vertex 27.41412853003666 0.6943111407035273 55.0
  endloop
endfacet
facet normal -0.22027514048219934 -0.9754377799150223 -0.0
  outer loop
    vertex 27.41412853003666 0.6943111407035273 55.0
    vertex 22.08608171201346 1.8975004014660535 0.0
    vertex 27.41412853003666 0.6943111407035273 0.0
  endloop
endfacet
facet normal -0.22027514048219934 -0.9754377799150223 -0.0
  outer loop
    vertex 22.08608171201346 1.8975004014660535 0.0
    vertex 27.41412853003666 0.6943111407035273 55.0
    vertex 22.08608171201346 1.8975004014660535 55.0
  endloop
endfacet
facet normal -0.8713271089298846 0.49070262812001425 0.0
  outer loop
    vertex 22.63854780266353 2.8784991855813646 55.0
    vertex 22.08608171201346 1.8975004014660535 0.0
    vertex 22.08608171201346 1.8975004014660535 55.0
  endloop
endfacet
facet normal -0.8713271089298846 0.49070262812001425 0.0
  outer loop
    vertex 22.08608171201346 1.8975004014660535 0.0
    vertex 22.63854780266353 2.8784991855813646 55.0
    vertex 22.63854780266353 2.8784991855813646 0.0
  endloop
endfacet
facet normal 0.21848452137050645 0.9758404141669378 0.0
  outer loop
    vertex 22.63854780266353 2.8784991855813646 55.0
    vertex 27.430367154412284 1.8056410190598289 0.0
    vertex 22.63854780266353 2.8784991855813646 0.0
  endloop
endfacet
facet normal 0.21848452137050645 0.9758404141669378 0.0
  outer loop
    vertex 27.430367154412284 1.8056410190598289 0.0
    vertex 22.63854780266353 2.8784991855813646 55.0
    vertex 27.430367154412284 1.8056410190598289 55.0
  endloop
endfacet
facet normal -0.16727578226799464 0.9859101443167275 0.0
  outer loop
    vertex 27.430367154412284 1.8056410190598289 55.0
    vertex 75.73105312725387 10.000642436544227 0.0
    vertex 27.430367154412284 1.8056410190598289 0.0
  endloop
endfacet
facet normal -0.16727578226799464 0.9859101443167275 0.0
  outer loop
    vertex 75.73105312725387 10.000642436544227 0.0
    vertex 27.430367154412284 1.8056410190598289 55.0
    vertex 75.73105312725387 10.000642436544227 55.0
  endloop
endfacet
facet normal 0.1737570848192128 0.9847885435336508 0.0
  outer loop
    vertex 75.73105312725387 10.000642436544227 55.0
    vertex 77.03603256031928 9.77039054792574 0.0
    vertex 75.73105312725387 10.000642436544227 0.0
  endloop
endfacet
facet normal 0.1737570848192128 0.9847885435336508 0.0
  outer loop
    vertex 77.03603256031928 9.77039054792574 0.0
    vertex 75.73105312725387 10.000642436544227 55.0
    vertex 77.03603256031928 9.77039054792574 55.0
  endloop
endfacet
facet normal 0.4034282365854892 0.9150112884142593 0.0
  outer loop
    vertex 77.03603256031928 9.77039054792574 55.0
    vertex 78.23422964241827 9.242105769329402 0.0
    vertex 77.03603256031928 9.77039054792574 0.0
  endloop
endfacet
facet normal 0.4034282365854892 0.9150112884142593 0.0
  outer loop
    vertex 78.23422964241827 9.242105769329402 0.0
    vertex 77.03603256031928 9.77039054792574 55.0
    vertex 78.23422964241827 9.242105769329402 55.0
  endloop
endfacet
facet normal 0.6098547799191283 0.7925131843760024 0.0
  outer loop
    vertex 78.23422964241827 9.242105769329402 55.0
    vertex 79.2720168228256 8.44350773337555 0.0
    vertex 78.23422964241827 9.242105769329402 0.0
  endloop
endfacet
facet normal 0.6098547799191283 0.7925131843760024 0.0
  outer loop
    vertex 79.2720168228256 8.44350773337555 0.0
    vertex 78.23422964241827 9.242105769329402 55.0
    vertex 79.2720168228256 8.44350773337555 55.0
  endloop
endfacet
facet normal 0.7811428914960646 0.6243522908303993 0.0
  outer loop
    vertex 79.2720168228256 8.44350773337555 0.0
    vertex 80.0895991877069 7.420609824744274 55.0
    vertex 80.0895991877069 7.420609824744274 0.0
  endloop
endfacet
facet normal 0.7811428914960646 0.6243522908303993 0.0
  outer loop
    vertex 80.0895991877069 7.420609824744274 55.0
    vertex 79.2720168228256 8.44350773337555 0.0
    vertex 79.2720168228256 8.44350773337555 55.0
  endloop
endfacet
facet normal 0.9074233437270758 0.4202176522460397 0.0
  outer loop
    vertex 80.0895991877069 7.420609824744274 0.0
    vertex 80.63986951895089 6.2323490716265955 55.0
    vertex 80.63986951895089 6.2323490716265955 0.0
  endloop
endfacet
facet normal 0.9074233437270758 0.4202176522460397 0.0
  outer loop
    vertex 80.63986951895089 6.2323490716265955 55.0
    vertex 80.0895991877069 7.420609824744274 0.0
    vertex 80.0895991877069 7.420609824744274 55.0
  endloop
endfacet
facet normal 0.9814201469847676 0.19187103765914534 0.0
  outer loop
    vertex 80.63986951895089 6.2323490716265955 0.0
    vertex 80.891122503885 4.947190329521623 55.0
    vertex 80.891122503885 4.947190329521623 0.0
  endloop
endfacet
facet normal 0.9814201469847676 0.19187103765914534 0.0
  outer loop
    vertex 80.891122503885 4.947190329521623 55.0
    vertex 80.63986951895089 6.2323490716265955 0.0
    vertex 80.63986951895089 6.2323490716265955 55.0
  endloop
endfacet
facet normal 0.9988697754149305 -0.04753074544467309 0.0
  outer loop
    vertex 80.891122503885 4.947190329521623 0.0
    vertex 80.82888152257372 3.6391814935069164 55.0
    vertex 80.82888152257372 3.6391814935069164 0.0
  endloop
endfacet
facet normal 0.9988697754149305 -0.04753074544467309 0.0
  outer loop
    vertex 80.82888152257372 3.6391814935069164 55.0
    vertex 80.891122503885 4.947190329521623 0.0
    vertex 80.891122503885 4.947190329521623 55.0
  endloop
endfacet
facet normal 0.9587668215042412 -0.28419391616052314 0.0
  outer loop
    vertex 80.82888152257372 3.6391814935069164 0.0
    vertex 80.45673275741045 2.3836870285909666 55.0
    vertex 80.45673275741045 2.3836870285909666 0.0
  endloop
endfacet
facet normal 0.9587668215042412 -0.28419391616052314 0.0
  outer loop
    vertex 80.45673275741045 2.3836870285909666 55.0
    vertex 80.82888152257372 3.6391814935069164 0.0
    vertex 80.82888152257372 3.6391814935069164 55.0
  endloop
endfacet
facet normal 0.8634219253519994 -0.5044824861394561 0.0
  outer loop
    vertex 80.45673275741045 2.3836870285909666 0.0
    vertex 79.79611856552445 1.2530456423300722 55.0
    vertex 79.79611856552445 1.2530456423300722 0.0
  endloop
endfacet
facet normal 0.8634219253519994 -0.5044824861394561 0.0
  outer loop
    vertex 79.79611856552445 1.2530456423300722 55.0
    vertex 80.45673275741045 2.3836870285909666 0.0
    vertex 80.45673275741045 2.3836870285909666 55.0
  endloop
endfacet
facet normal 0.7183286408944997 -0.6957039339192075 0.0
  outer loop
    vertex 79.79611856552445 1.2530456423300722 0.0
    vertex 78.88510201941011 0.3124022946402823 55.0
    vertex 78.88510201941011 0.3124022946402823 0.0
  endloop
endfacet
facet normal 0.7183286408944997 -0.6957039339192075 0.0
  outer loop
    vertex 78.88510201941011 0.3124022946402823 55.0
    vertex 79.79611856552445 1.2530456423300722 0.0
    vertex 79.79611856552445 1.2530456423300722 55.0
  endloop
endfacet
facet normal 0.531846909944371 -0.8468405188597343 0.0
  outer loop
    vertex 78.88510201941011 0.3124022946402823 55.0
    vertex 77.77617380010976 -0.3840453051735974 0.0
    vertex 78.88510201941011 0.3124022946402823 0.0
  endloop
endfacet
facet normal 0.531846909944371 -0.8468405188597343 0.0
  outer loop
    vertex 77.77617380010976 -0.3840453051735974 0.0
    vertex 78.88510201941011 0.3124022946402823 55.0
    vertex 77.77617380010976 -0.3840453051735974 55.0
  endloop
endfacet
facet normal 0.31472138154368134 -0.9491840980543429 0.0
  outer loop
    vertex 77.77617380010976 -0.3840453051735974 55.0
    vertex 76.52167504345168 -0.7999999999999929 0.0
    vertex 77.77617380010976 -0.3840453051735974 0.0
  endloop
endfacet
facet normal 0.31472138154368134 -0.9491840980543429 0.0
  outer loop
    vertex 76.52167504345168 -0.7999999999999929 0.0
    vertex 77.77617380010976 -0.3840453051735974 55.0
    vertex 76.52167504345168 -0.7999999999999929 55.0
  endloop
endfacet
facet normal 2.0943708575583173e-16 -1.0 0.0
  outer loop
    vertex 76.52167504345168 -0.7999999999999929 55.0
    vertex 42.860414999999996 -0.7999999999999999 0.0
    vertex 76.52167504345168 -0.7999999999999929 0.0
  endloop
endfacet
facet normal 2.0943708575583173e-16 -1.0 0.0
  outer loop
    vertex 42.860414999999996 -0.7999999999999999 0.0
    vertex 76.52167504345168 -0.7999999999999929 55.0
    vertex 42.860414999999996 -0.7999999999999999 55.0
  endloop
endfacet
facet normal 1.9754075252274526e-16 -1.0 0.0
  outer loop
    vertex 42.860414999999996 -0.7999999999999999 55.0
    vertex 0.03431790558095429 -0.8000000000000084 0.0
    vertex 42.860414999999996 -0.7999999999999999 0.0
  endloop
endfacet
facet normal 1.9754075252274526e-16 -1.0 0.0
  outer loop
    vertex 0.03431790558095429 -0.8000000000000084 0.0
    vertex 42.860414999999996 -0.7999999999999999 55.0
    vertex 0.03431790558095429 -0.8000000000000084 55.0
  endloop
endfacet
facet normal 0.18686070493946488 -0.9823864193633411 0.0
  outer loop
    vertex 0.03431790558095429 -0.8000000000000084 55.0
    vertex -0.4525450648549152 -0.89260669332495 0.0
    vertex 0.03431790558095429 -0.8000000000000084 0.0
  endloop
endfacet
facet normal 0.18686070493946488 -0.9823864193633411 0.0
  outer loop
    vertex -0.4525450648549152 -0.89260669332495 0.0
    vertex 0.03431790558095429 -0.8000000000000084 55.0
    vertex -0.4525450648549152 -0.89260669332495 55.0
  endloop
endfacet
facet normal 0.46769561293785583 -0.883889593579811 0.0
  outer loop
    vertex -0.4525450648549152 -0.89260669332495 55.0
    vertex -1.6038824570377221 -1.5018179016551096 0.0
    vertex -0.4525450648549152 -0.89260669332495 0.0
  endloop
endfacet
facet normal 0.46769561293785583 -0.883889593579811 0.0
  outer loop
    vertex -1.6038824570377221 -1.5018179016551096 0.0
    vertex -0.4525450648549152 -0.89260669332495 55.0
    vertex -1.6038824570377221 -1.5018179016551096 55.0
  endloop
endfacet
facet normal 0.7071067811865378 -0.7071067811865572 0.0
  outer loop
    vertex -1.6038824570377221 -1.5018179016551096 55.0
    vertex -2.524945996375091 -2.4228814409924535 0.0
    vertex -1.6038824570377221 -1.5018179016551096 0.0
  endloop
endfacet
facet normal 0.7071067811865378 -0.7071067811865572 0.0
  outer loop
    vertex -2.524945996375091 -2.4228814409924535 0.0
    vertex -1.6038824570377221 -1.5018179016551096 55.0
    vertex -2.524945996375091 -2.4228814409924535 55.0
  endloop
endfacet
facet normal 0.8838895935798107 -0.4676956129378562 0.0
  outer loop
    vertex -2.524945996375091 -2.4228814409924535 0.0
    vertex -3.1341572047052653 -3.574218833175286 55.0
    vertex -3.1341572047052653 -3.574218833175286 0.0
  endloop
endfacet
facet normal 0.8838895935798107 -0.4676956129378562 0.0
  outer loop
    vertex -3.1341572047052653 -3.574218833175286 55.0
    vertex -2.524945996375091 -2.4228814409924535 0.0
    vertex -2.524945996375091 -2.4228814409924535 55.0
  endloop
endfacet
facet normal 0.9823864193633464 -0.18686070493943754 0.0
  outer loop
    vertex -3.1341572047052653 -3.574218833175286 0.0
    vertex -3.2320479722211592 -4.0888618696544485 55.0
    vertex -3.2320479722211592 -4.0888618696544485 0.0
  endloop
endfacet
facet normal 0.9823864193633464 -0.18686070493943754 0.0
  outer loop
    vertex -3.2320479722211592 -4.0888618696544485 55.0
    vertex -3.1341572047052653 -3.574218833175286 0.0
    vertex -3.1341572047052653 -3.574218833175286 55.0
  endloop
endfacet
facet normal 0.9823864193633342 -0.1868607049395014 0.0
  outer loop
    vertex -3.2320479722211592 -4.0888618696544485 0.0
    vertex -3.3775583243576905 -4.8538562747755565 55.0
    vertex -3.3775583243576905 -4.8538562747755565 0.0
  endloop
endfacet
facet normal 0.9823864193633342 -0.1868607049395014 0.0
  outer loop
    vertex -3.3775583243576905 -4.8538562747755565 55.0
    vertex -3.2320479722211592 -4.0888618696544485 0.0
    vertex -3.2320479722211592 -4.0888618696544485 55.0
  endloop
endfacet
facet normal 0.9938734074584378 0.11052443144822853 0.0
  outer loop
    vertex -3.3775583243576905 -4.8538562747755565 0.0
    vertex -3.233722337160026 -6.147278560130208 55.0
    vertex -3.233722337160026 -6.147278560130208 0.0
  endloop
endfacet
facet normal 0.9938734074584378 0.11052443144822853 0.0
  outer loop
    vertex -3.233722337160026 -6.147278560130208 55.0
    vertex -3.3775583243576905 -4.8538562747755565 0.0
    vertex -3.3775583243576905 -4.8538562747755565 55.0
  endloop
endfacet
facet normal 0.9142317586220647 0.405191672578308 0.0
  outer loop
    vertex -3.233722337160026 -6.147278560130208 0.0
    vertex -2.6784260165673675 -7.400190616543891 55.0
    vertex -2.6784260165673675 -7.400190616543891 0.0
  endloop
endfacet
facet normal 0.9142317586220647 0.405191672578308 0.0
  outer loop
    vertex -2.6784260165673675 -7.400190616543891 55.0
    vertex -3.233722337160026 -6.147278560130208 0.0
    vertex -3.233722337160026 -6.147278560130208 55.0
  endloop
endfacet
facet normal 0.7442749586355649 0.6678733307656687 0.0
  outer loop
    vertex -2.6784260165673675 -7.400190616543891 0.0
    vertex -1.7639291852465087 -8.419301666424243 55.0
    vertex -1.7639291852465087 -8.419301666424243 0.0
  endloop
endfacet
facet normal 0.7442749586355649 0.6678733307656687 0.0
  outer loop
    vertex -1.7639291852465087 -8.419301666424243 55.0
    vertex -2.6784260165673675 -7.400190616543891 0.0
    vertex -2.6784260165673675 -7.400190616543891 55.0
  endloop
endfacet
facet normal 0.5014633400293097 0.8651788939905138 0.0
  outer loop
    vertex -1.7639291852465087 -8.419301666424243 55.0
    vertex -0.5792683811192968 -9.105938809061188 0.0
    vertex -1.7639291852465087 -8.419301666424243 0.0
  endloop
endfacet
facet normal 0.5014633400293097 0.8651788939905138 0.0
  outer loop
    vertex -0.5792683811192968 -9.105938809061188 0.0
    vertex -1.7639291852465087 -8.419301666424243 55.0
    vertex -0.5792683811192968 -9.105938809061188 55.0
  endloop
endfacet
facet normal 0.209564995800409 0.9777947190157935 0.0
  outer loop
    vertex -0.5792683811192968 -9.105938809061188 55.0
    vertex 0.7497612724980871 -9.390781924249303 0.0
    vertex -0.5792683811192968 -9.105938809061188 0.0
  endloop
endfacet
facet normal 0.209564995800409 0.9777947190157935 0.0
  outer loop
    vertex 0.7497612724980871 -9.390781924249303 0.0
    vertex -0.5792683811192968 -9.105938809061188 55.0
    vertex 0.7497612724980871 -9.390781924249303 55.0
  endloop
endfacet
facet normal -0.16727578226799494 0.9859101443167274 0.0
  outer loop
    vertex 0.7497612724980871 -9.390781924249303 55.0
    vertex 49.05910757193314 -1.194311140703517 0.0
    vertex 0.7497612724980871 -9.390781924249303 0.0
  endloop
endfacet
facet normal -0.16727578226799494 0.9859101443167274 0.0
  outer loop
    vertex 49.05910757193314 -1.194311140703517 0.0
    vertex 0.7497612724980871 -9.390781924249303 55.0
    vertex 49.05910757193314 -1.194311140703517 55.0
  endloop
endfacet
facet normal 0.22027514048219854 0.9754377799150225 0.0
  outer loop
    vertex 49.05910757193314 -1.194311140703517 55.0
    vertex 54.22803617604725 -2.3615680358720432 0.0
    vertex 49.05910757193314 -1.194311140703517 0.0
  endloop
endfacet
facet normal 0.22027514048219854 0.9754377799150225 0.0
  outer loop
    vertex 54.22803617604725 -2.3615680358720432 0.0
    vertex 49.05910757193314 -1.194311140703517 55.0
    vertex 54.22803617604725 -2.3615680358720432 55.0
  endloop
endfacet
endsolid money-clip-double-thicker
