solid fingerdigger04
facet normal 0.5 -0.866025403784439 2.81542259124301e-015
outer loop
vertex 118.958550380809 232.340703145788 4.0
vertex 117.632055128873 231.791250822013 -1.40998324127395e-015
vertex 118.958550380809 232.340703145788 -1.40998324127395e-015
endloop
endfacet
facet normal 0.258819045102519 -0.965925826289069 1.45967219322569e-015
outer loop
vertex 117.632055128873 231.791250822013 -1.40998324127395e-015
vertex 118.958550380809 232.340703145788 4.0
vertex 117.632055128873 231.791250822013 4.0
endloop
endfacet
facet normal 0.707106781186552 -0.707106781186543 3.9886053924048e-015
outer loop
vertex 120.097637677335 233.214755570077 4.0
vertex 118.958550380809 232.340703145788 -1.40998324127395e-015
vertex 120.097637677335 233.214755570077 -1.40998324127395e-015
endloop
endfacet
facet normal 0.500000000000001 -0.866025403784438 2.81542259124302e-015
outer loop
vertex 118.958550380809 232.340703145788 -1.40998324127395e-015
vertex 120.097637677335 233.214755570077 4.0
vertex 118.958550380809 232.340703145788 4.0
endloop
endfacet
facet normal 0.866025403784442 -0.499999999999995 4.88752539788974e-015
outer loop
vertex 120.971690101624 234.353842866603 -1.40998324127395e-015
vertex 120.097637677335 233.214755570077 4.0
vertex 120.097637677335 233.214755570077 -1.40998324127395e-015
endloop
endfacet
facet normal 0.707106781186552 -0.707106781186543 3.9886053924048e-015
outer loop
vertex 120.097637677335 233.214755570077 4.0
vertex 120.971690101624 234.353842866603 -1.40998324127395e-015
vertex 120.971690101624 234.353842866603 4.0
endloop
endfacet
facet normal 0.965925826289069 -0.258819045102519 5.44742440483093e-015
outer loop
vertex 121.521142425399 235.680338118539 -1.40998324127395e-015
vertex 120.971690101624 234.353842866603 4.0
vertex 120.971690101624 234.353842866603 -1.40998324127395e-015
endloop
endfacet
facet normal 0.866025403784441 -0.499999999999995 4.88752539788974e-015
outer loop
vertex 120.971690101624 234.353842866603 4.0
vertex 121.521142425399 235.680338118539 -1.40998324127395e-015
vertex 121.521142425399 235.680338118539 4.0
endloop
endfacet
facet normal 1.0 -5.07933264051874e-016 5.63958873090603e-015
outer loop
vertex 121.708550380809 237.103842866603 -1.40998324127395e-015
vertex 121.521142425399 235.680338118539 4.0
vertex 121.521142425399 235.680338118539 -1.40998324127395e-015
endloop
endfacet
facet normal 0.965925826289069 -0.25881904510252 5.44742440483093e-015
outer loop
vertex 121.521142425399 235.680338118539 4.0
vertex 121.708550380809 237.103842866603 -1.40998324127395e-015
vertex 121.708550380809 237.103842866603 4.0
endloop
endfacet
facet normal 0.965925826289068 0.25881904510252 5.44742440483093e-015
outer loop
vertex 121.521142425399 238.527347614667 -1.40998324127395e-015
vertex 121.708550380809 237.103842866603 4.0
vertex 121.708550380809 237.103842866603 -1.40998324127395e-015
endloop
endfacet
facet normal 1.0 -4.99022154156226e-016 5.63958873090603e-015
outer loop
vertex 121.708550380809 237.103842866603 4.0
vertex 121.521142425399 238.527347614667 -1.40998324127395e-015
vertex 121.521142425399 238.527347614667 4.0
endloop
endfacet
facet normal 0.866025403784441 0.499999999999996 4.88752539788973e-015
outer loop
vertex 120.971690101624 239.853842866603 -1.40998324127395e-015
vertex 121.521142425399 238.527347614667 4.0
vertex 121.521142425399 238.527347614667 -1.40998324127395e-015
endloop
endfacet
facet normal 0.965925826289068 0.258819045102521 5.44742440483093e-015
outer loop
vertex 121.521142425399 238.527347614667 4.0
vertex 120.971690101624 239.853842866603 -1.40998324127395e-015
vertex 120.971690101624 239.853842866603 4.0
endloop
endfacet
facet normal 0.707106781186552 0.707106781186543 3.98860539240481e-015
outer loop
vertex 120.097637677335 240.992930163129 -1.40998324127395e-015
vertex 120.971690101624 239.853842866603 4.0
vertex 120.971690101624 239.853842866603 -1.40998324127395e-015
endloop
endfacet
facet normal 0.866025403784441 0.499999999999997 4.88752539788973e-015
outer loop
vertex 120.971690101624 239.853842866603 4.0
vertex 120.097637677335 240.992930163129 -1.40998324127395e-015
vertex 120.097637677335 240.992930163129 4.0
endloop
endfacet
facet normal 0.5 0.866025403784439 2.81542259124301e-015
outer loop
vertex 118.958550380809 241.866982587417 4.0
vertex 120.097637677335 240.992930163129 -1.40998324127395e-015
vertex 118.958550380809 241.866982587417 -1.40998324127395e-015
endloop
endfacet
facet normal 0.707106781186552 0.707106781186543 3.98860539240481e-015
outer loop
vertex 120.097637677335 240.992930163129 -1.40998324127395e-015
vertex 118.958550380809 241.866982587417 4.0
vertex 120.097637677335 240.992930163129 4.0
endloop
endfacet
facet normal 0.258819045102519 0.965925826289069 1.45967219322569e-015
outer loop
vertex 117.632055128873 242.416434911193 4.0
vertex 118.958550380809 241.866982587417 -1.40998324127395e-015
vertex 117.632055128873 242.416434911193 -1.40998324127395e-015
endloop
endfacet
facet normal 0.500000000000001 0.866025403784438 2.81542259124302e-015
outer loop
vertex 118.958550380809 241.866982587417 -1.40998324127395e-015
vertex 117.632055128873 242.416434911193 4.0
vertex 118.958550380809 241.866982587417 4.0
endloop
endfacet
facet normal 0.130526192220049 0.991444861373811 7.39537828977531e-016
outer loop
vertex 116.208550380809 242.603842866603 4.0
vertex 117.632055128873 242.416434911193 -1.40998324127395e-015
vertex 116.208550380809 242.603842866603 -1.40998324127395e-015
endloop
endfacet
facet normal 0.258819045102519 0.965925826289069 1.45967219322569e-015
outer loop
vertex 117.632055128873 242.416434911193 -1.40998324127395e-015
vertex 116.208550380809 242.603842866603 4.0
vertex 117.632055128873 242.416434911193 4.0
endloop
endfacet
facet normal -0.258819045102519 0.965925826289069 -8.95448619496818e-016
outer loop
vertex 34.7850456327454 242.416434911192 3.99999999999973
vertex 36.2085503808093 242.603842866603 -2.66486832600776e-013
vertex 34.7850456327454 242.416434911192 -2.66486832600776e-013
endloop
endfacet
facet normal -0.130526192220055 0.99144486137381 -4.51587705168019e-016
outer loop
vertex 36.2085503808093 242.603842866603 -2.66486832600776e-013
vertex 34.7850456327454 242.416434911192 3.99999999999973
vertex 36.2085503808093 242.603842866603 3.99999999999973
endloop
endfacet
facet normal -0.500000000000001 0.866025403784438 -1.72987389537375e-015
outer loop
vertex 33.4585503808093 241.866982587417 3.99999999999973
vertex 34.7850456327454 242.416434911192 -2.66486832600776e-013
vertex 33.4585503808093 241.866982587417 -2.66486832600776e-013
endloop
endfacet
facet normal -0.258819045102519 0.965925826289069 -8.95448619496818e-016
outer loop
vertex 34.7850456327454 242.416434911192 -2.66486832600776e-013
vertex 33.4585503808093 241.866982587417 3.99999999999973
vertex 34.7850456327454 242.416434911192 3.99999999999973
endloop
endfacet
facet normal -0.707106781186549 0.707106781186546 -2.44641112403274e-015
outer loop
vertex 32.3194630842833 240.992930163129 3.99999999999973
vertex 33.4585503808093 241.866982587417 -2.66486832600776e-013
vertex 32.3194630842833 240.992930163129 -2.66486832600776e-013
endloop
endfacet
facet normal -0.500000000000001 0.866025403784438 -1.72987389537375e-015
outer loop
vertex 33.4585503808093 241.866982587417 -2.66486832600776e-013
vertex 32.3194630842833 240.992930163129 3.99999999999973
vertex 33.4585503808093 241.866982587417 3.99999999999973
endloop
endfacet
facet normal -0.707106781186549 0.707106781186546 -2.44641112403274e-015
outer loop
vertex 32.3194630842833 240.992930163129 3.99999999999973
vertex 31.4454106599948 239.853842866603 -2.66486832600776e-013
vertex 31.4454106599948 239.853842866603 3.99999999999973
endloop
endfacet
facet normal -0.866025403784434 0.500000000000008 -2.99622947747441e-015
outer loop
vertex 31.4454106599948 239.853842866603 -2.66486832600776e-013
vertex 32.3194630842833 240.992930163129 3.99999999999973
vertex 32.3194630842833 240.992930163129 -2.66486832600776e-013
endloop
endfacet
facet normal -0.866025403784434 0.500000000000008 -2.99622947747441e-015
outer loop
vertex 31.4454106599948 239.853842866603 3.99999999999973
vertex 30.8959583362194 238.527347614666 -2.66486832600776e-013
vertex 30.8959583362194 238.527347614666 3.99999999999973
endloop
endfacet
facet normal -0.965925826289067 0.258819045102527 -3.34185974352956e-015
outer loop
vertex 30.8959583362194 238.527347614666 -2.66486832600776e-013
vertex 31.4454106599948 239.853842866603 3.99999999999973
vertex 31.4454106599948 239.853842866603 -2.66486832600776e-013
endloop
endfacet
facet normal -0.965925826289067 0.258819045102527 -3.34185974352956e-015
outer loop
vertex 30.8959583362194 238.527347614666 3.99999999999973
vertex 30.7085503808092 237.103842866603 -2.66486832600776e-013
vertex 30.7085503808092 237.103842866603 3.99999999999973
endloop
endfacet
facet normal -1.0 2.40599967182466e-016 -3.4597477907475e-015
outer loop
vertex 30.7085503808092 237.103842866603 -2.66486832600776e-013
vertex 30.8959583362194 238.527347614666 3.99999999999973
vertex 30.8959583362194 238.527347614666 -2.66486832600776e-013
endloop
endfacet
facet normal -1.0 2.40599967182466e-016 -3.4597477907475e-015
outer loop
vertex 30.7085503808092 237.103842866603 3.99999999999973
vertex 30.8959583362194 235.680338118539 -2.66486832600776e-013
vertex 30.8959583362194 235.680338118539 3.99999999999973
endloop
endfacet
facet normal -0.965925826289067 -0.258819045102526 -3.34185974352956e-015
outer loop
vertex 30.8959583362194 235.680338118539 -2.66486832600776e-013
vertex 30.7085503808092 237.103842866603 3.99999999999973
vertex 30.7085503808092 237.103842866603 -2.66486832600776e-013
endloop
endfacet
facet normal -0.965925826289067 -0.258819045102526 -3.34185974352956e-015
outer loop
vertex 30.8959583362194 235.680338118539 3.99999999999973
vertex 31.4454106599948 234.353842866603 -2.66486832600776e-013
vertex 31.4454106599948 234.353842866603 3.99999999999973
endloop
endfacet
facet normal -0.866025403784434 -0.500000000000008 -2.99622947747441e-015
outer loop
vertex 31.4454106599948 234.353842866603 -2.66486832600776e-013
vertex 30.8959583362194 235.680338118539 3.99999999999973
vertex 30.8959583362194 235.680338118539 -2.66486832600776e-013
endloop
endfacet
facet normal -0.866025403784434 -0.500000000000008 -2.99622947747441e-015
outer loop
vertex 31.4454106599948 234.353842866603 3.99999999999973
vertex 32.3194630842833 233.214755570077 -2.66486832600776e-013
vertex 32.3194630842833 233.214755570077 3.99999999999973
endloop
endfacet
facet normal -0.707106781186549 -0.707106781186546 -2.44641112403274e-015
outer loop
vertex 32.3194630842833 233.214755570077 -2.66486832600776e-013
vertex 31.4454106599948 234.353842866603 3.99999999999973
vertex 31.4454106599948 234.353842866603 -2.66486832600776e-013
endloop
endfacet
facet normal -0.5 -0.866025403784439 -1.72987389537375e-015
outer loop
vertex 33.4585503808093 232.340703145788 3.99999999999973
vertex 32.3194630842833 233.214755570077 -2.66486832600776e-013
vertex 33.4585503808093 232.340703145788 -2.66486832600776e-013
endloop
endfacet
facet normal -0.707106781186549 -0.707106781186546 -2.44641112403274e-015
outer loop
vertex 32.3194630842833 233.214755570077 -2.66486832600776e-013
vertex 33.4585503808093 232.340703145788 3.99999999999973
vertex 32.3194630842833 233.214755570077 3.99999999999973
endloop
endfacet
facet normal -0.258819045102518 -0.965925826289069 -8.95448619496816e-016
outer loop
vertex 34.7850456327454 231.791250822013 3.99999999999973
vertex 33.4585503808093 232.340703145788 -2.66486832600776e-013
vertex 34.7850456327454 231.791250822013 -2.66486832600776e-013
endloop
endfacet
facet normal -0.5 -0.866025403784439 -1.72987389537375e-015
outer loop
vertex 33.4585503808093 232.340703145788 -2.66486832600776e-013
vertex 34.7850456327454 231.791250822013 3.99999999999973
vertex 33.4585503808093 232.340703145788 3.99999999999973
endloop
endfacet
facet normal -0.130526192220053 -0.99144486137381 -4.51587705168015e-016
outer loop
vertex 36.2085503808093 231.603842866603 3.99999999999973
vertex 34.7850456327454 231.791250822013 -2.66486832600776e-013
vertex 36.2085503808093 231.603842866603 -2.66486832600776e-013
endloop
endfacet
facet normal -0.258819045102518 -0.965925826289069 -8.95448619496816e-016
outer loop
vertex 34.7850456327454 231.791250822013 -2.66486832600776e-013
vertex 36.2085503808093 231.603842866603 3.99999999999973
vertex 34.7850456327454 231.791250822013 3.99999999999973
endloop
endfacet
facet normal 0.258819045102519 -0.965925826289069 1.45967219322569e-015
outer loop
vertex 117.632055128873 231.791250822013 4.0
vertex 116.208550380809 231.603842866603 -1.40998324127395e-015
vertex 117.632055128873 231.791250822013 -1.40998324127395e-015
endloop
endfacet
facet normal 0.130526192220049 -0.991444861373811 7.39537828977531e-016
outer loop
vertex 116.208550380809 231.603842866603 -1.40998324127395e-015
vertex 117.632055128873 231.791250822013 4.0
vertex 116.208550380809 231.603842866603 4.0
endloop
endfacet
facet normal -0.499999999999999 0.866025403784439 -1.72987389537375e-015
outer loop
vertex 38.0085503808093 233.986151412979 3.99999999999973
vertex 38.7541347930809 234.558258454331 -2.66486832600776e-013
vertex 38.0085503808093 233.986151412979 -2.66486832600776e-013
endloop
endfacet
facet normal -0.707106781186548 0.707106781186547 -2.44641112403274e-015
outer loop
vertex 38.7541347930809 234.558258454331 -2.66486832600776e-013
vertex 38.0085503808093 233.986151412979 3.99999999999973
vertex 38.7541347930808 234.558258454331 3.99999999999973
endloop
endfacet
facet normal -0.258819045102521 0.965925826289068 -8.95448619496825e-016
outer loop
vertex 37.1402989431783 233.626509891962 3.99999999999973
vertex 38.0085503808093 233.986151412979 -2.66486832600776e-013
vertex 37.1402989431783 233.626509891962 -2.66486832600776e-013
endloop
endfacet
facet normal -0.5 0.866025403784439 -1.72987389537375e-015
outer loop
vertex 38.0085503808093 233.986151412979 -2.66486832600776e-013
vertex 37.1402989431783 233.626509891962 3.99999999999973
vertex 38.0085503808093 233.986151412979 3.99999999999973
endloop
endfacet
facet normal -1.47033313278174e-015 1.0 -3.92566913042535e-030
outer loop
vertex 36.2085503808093 233.503842866603 3.99999999999973
vertex 37.1402989431783 233.626509891962 -2.66486832600776e-013
vertex 36.2085503808093 233.503842866603 -2.66486832600776e-013
endloop
endfacet
facet normal -0.258819045102521 0.965925826289068 -8.95448619496825e-016
outer loop
vertex 37.1402989431783 233.626509891962 -2.66486832600776e-013
vertex 36.2085503808093 233.503842866603 3.99999999999973
vertex 37.1402989431783 233.626509891962 3.99999999999973
endloop
endfacet
facet normal 0.258819045102521 0.965925826289068 8.95448619496827e-016
outer loop
vertex 35.2768018184402 233.626509891962 3.99999999999973
vertex 36.2085503808093 233.503842866603 -2.66486832600776e-013
vertex 35.2768018184402 233.626509891962 -2.66486832600776e-013
endloop
endfacet
facet normal -1.47033313278174e-015 1.0 -3.92566913042535e-030
outer loop
vertex 36.2085503808093 233.503842866603 -2.66486832600776e-013
vertex 35.2768018184402 233.626509891962 3.99999999999973
vertex 36.2085503808093 233.503842866603 3.99999999999973
endloop
endfacet
facet normal 0.500000000000001 0.866025403784438 1.72987389537376e-015
outer loop
vertex 34.4085503808093 233.986151412979 3.99999999999973
vertex 35.2768018184402 233.626509891962 -2.66486832600776e-013
vertex 34.4085503808093 233.986151412979 -2.66486832600776e-013
endloop
endfacet
facet normal 0.258819045102521 0.965925826289068 8.95448619496827e-016
outer loop
vertex 35.2768018184402 233.626509891962 -2.66486832600776e-013
vertex 34.4085503808093 233.986151412979 3.99999999999973
vertex 35.2768018184402 233.626509891962 3.99999999999973
endloop
endfacet
facet normal 0.707106781186554 0.707106781186541 2.44641112403276e-015
outer loop
vertex 33.6629659685377 234.558258454331 3.99999999999973
vertex 34.4085503808093 233.986151412979 -2.66486832600776e-013
vertex 33.6629659685377 234.558258454331 -2.66486832600776e-013
endloop
endfacet
facet normal 0.500000000000001 0.866025403784438 1.72987389537376e-015
outer loop
vertex 34.4085503808093 233.986151412979 -2.66486832600776e-013
vertex 33.6629659685377 234.558258454331 3.99999999999973
vertex 34.4085503808093 233.986151412979 3.99999999999973
endloop
endfacet
facet normal 0.866025403784436 0.500000000000004 2.99622947747442e-015
outer loop
vertex 33.0908589271853 235.303842866603 -2.66486832600776e-013
vertex 33.6629659685377 234.558258454331 3.99999999999973
vertex 33.6629659685377 234.558258454331 -2.66486832600776e-013
endloop
endfacet
facet normal 0.707106781186554 0.707106781186541 2.44641112403276e-015
outer loop
vertex 33.6629659685377 234.558258454331 3.99999999999973
vertex 33.0908589271853 235.303842866603 -2.66486832600776e-013
vertex 33.0908589271853 235.303842866603 3.99999999999973
endloop
endfacet
facet normal 0.965925826289066 0.258819045102531 3.34185974352955e-015
outer loop
vertex 32.7312174061686 236.172094304234 -2.66486832600776e-013
vertex 33.0908589271853 235.303842866603 3.99999999999973
vertex 33.0908589271853 235.303842866603 -2.66486832600776e-013
endloop
endfacet
facet normal 0.866025403784436 0.500000000000004 2.99622947747442e-015
outer loop
vertex 33.0908589271853 235.303842866603 3.99999999999973
vertex 32.7312174061686 236.172094304234 -2.66486832600776e-013
vertex 32.7312174061686 236.172094304234 3.99999999999973
endloop
endfacet
facet normal 1.0 -1.96044417704232e-016 3.4597477907475e-015
outer loop
vertex 32.6085503808093 237.103842866603 -2.66486832600776e-013
vertex 32.7312174061686 236.172094304234 3.99999999999973
vertex 32.7312174061686 236.172094304234 -2.66486832600776e-013
endloop
endfacet
facet normal 0.965925826289066 0.258819045102531 3.34185974352955e-015
outer loop
vertex 32.7312174061686 236.172094304234 3.99999999999973
vertex 32.6085503808093 237.103842866603 -2.66486832600776e-013
vertex 32.6085503808093 237.103842866603 3.99999999999973
endloop
endfacet
facet normal 0.965925826289066 -0.258819045102531 3.34185974352955e-015
outer loop
vertex 32.7312174061686 238.035591428972 -2.66486832600776e-013
vertex 32.6085503808093 237.103842866603 3.99999999999973
vertex 32.6085503808093 237.103842866603 -2.66486832600776e-013
endloop
endfacet
facet normal 1.0 -1.96044417704232e-016 3.4597477907475e-015
outer loop
vertex 32.6085503808093 237.103842866603 3.99999999999973
vertex 32.7312174061686 238.035591428972 -2.66486832600776e-013
vertex 32.7312174061686 238.035591428972 3.99999999999973
endloop
endfacet
facet normal 0.866025403784437 -0.500000000000003 2.99622947747442e-015
outer loop
vertex 33.0908589271853 238.903842866603 -2.66486832600776e-013
vertex 32.7312174061686 238.035591428972 3.99999999999973
vertex 32.7312174061686 238.035591428972 -2.66486832600776e-013
endloop
endfacet
facet normal 0.965925826289066 -0.258819045102531 3.34185974352955e-015
outer loop
vertex 32.7312174061686 238.035591428972 3.99999999999973
vertex 33.0908589271853 238.903842866603 -2.66486832600776e-013
vertex 33.0908589271853 238.903842866603 3.99999999999973
endloop
endfacet
facet normal 0.707106781186554 -0.707106781186542 2.44641112403276e-015
outer loop
vertex 33.6629659685377 239.649427278874 -2.66486832600776e-013
vertex 33.0908589271853 238.903842866603 3.99999999999973
vertex 33.0908589271853 238.903842866603 -2.66486832600776e-013
endloop
endfacet
facet normal 0.866025403784437 -0.500000000000003 2.99622947747442e-015
outer loop
vertex 33.0908589271853 238.903842866603 3.99999999999973
vertex 33.6629659685377 239.649427278874 -2.66486832600776e-013
vertex 33.6629659685377 239.649427278874 3.99999999999973
endloop
endfacet
facet normal 0.5 -0.866025403784439 1.72987389537375e-015
outer loop
vertex 34.4085503808093 240.221534320227 3.99999999999973
vertex 33.6629659685377 239.649427278874 -2.66486832600776e-013
vertex 34.4085503808093 240.221534320227 -2.66486832600776e-013
endloop
endfacet
facet normal 0.707106781186554 -0.707106781186542 2.44641112403276e-015
outer loop
vertex 33.6629659685377 239.649427278874 -2.66486832600776e-013
vertex 34.4085503808093 240.221534320227 3.99999999999973
vertex 33.6629659685377 239.649427278874 3.99999999999973
endloop
endfacet
facet normal 0.258819045102521 -0.965925826289068 8.95448619496825e-016
outer loop
vertex 35.2768018184402 240.581175841243 3.99999999999973
vertex 34.4085503808093 240.221534320227 -2.66486832600776e-013
vertex 35.2768018184402 240.581175841243 -2.66486832600776e-013
endloop
endfacet
facet normal 0.5 -0.866025403784439 1.72987389537375e-015
outer loop
vertex 34.4085503808093 240.221534320227 -2.66486832600776e-013
vertex 35.2768018184402 240.581175841243 3.99999999999973
vertex 34.4085503808093 240.221534320227 3.99999999999973
endloop
endfacet
facet normal 2.98522181504171e-015 -1.0 9.0860245196135e-030
outer loop
vertex 36.2085503808093 240.703842866603 3.99999999999973
vertex 35.2768018184402 240.581175841243 -2.66486832600776e-013
vertex 36.2085503808093 240.703842866603 -2.66486832600776e-013
endloop
endfacet
facet normal 0.258819045102521 -0.965925826289068 8.95448619496825e-016
outer loop
vertex 35.2768018184402 240.581175841243 -2.66486832600776e-013
vertex 36.2085503808093 240.703842866603 3.99999999999973
vertex 35.2768018184402 240.581175841243 3.99999999999973
endloop
endfacet
facet normal -0.866025403784437 -0.500000000000003 -2.99622947747442e-015
outer loop
vertex 39.3262418344332 238.903842866603 3.99999999999973
vertex 39.6858833554499 238.035591428972 -2.66486832600776e-013
vertex 39.6858833554499 238.035591428972 3.99999999999973
endloop
endfacet
facet normal -0.965925826289069 -0.25881904510252 -3.34185974352956e-015
outer loop
vertex 39.6858833554499 238.035591428972 -2.66486832600776e-013
vertex 39.3262418344332 238.903842866603 3.99999999999973
vertex 39.3262418344333 238.903842866603 -2.66486832600776e-013
endloop
endfacet
facet normal -0.707106781186548 -0.707106781186547 -2.44641112403274e-015
outer loop
vertex 38.7541347930808 239.649427278874 3.99999999999973
vertex 39.3262418344333 238.903842866603 -2.66486832600776e-013
vertex 39.3262418344332 238.903842866603 3.99999999999973
endloop
endfacet
facet normal -0.866025403784437 -0.500000000000003 -2.99622947747442e-015
outer loop
vertex 39.3262418344333 238.903842866603 -2.66486832600776e-013
vertex 38.7541347930808 239.649427278874 3.99999999999973
vertex 38.7541347930809 239.649427278874 -2.66486832600776e-013
endloop
endfacet
facet normal -0.965925826289069 -0.25881904510252 -3.34185974352956e-015
outer loop
vertex 39.6858833554499 238.035591428972 3.99999999999973
vertex 39.8085503808093 237.103842866603 -2.66486832600776e-013
vertex 39.8085503808093 237.103842866603 3.99999999999973
endloop
endfacet
facet normal -1.0 1.96044417704232e-016 -3.4597477907475e-015
outer loop
vertex 39.8085503808093 237.103842866603 -2.66486832600776e-013
vertex 39.6858833554499 238.035591428972 3.99999999999973
vertex 39.6858833554499 238.035591428972 -2.66486832600776e-013
endloop
endfacet
facet normal -0.500000000000001 -0.866025403784438 -1.72987389537376e-015
outer loop
vertex 38.0085503808093 240.221534320227 3.99999999999973
vertex 37.1402989431783 240.581175841243 -2.66486832600776e-013
vertex 38.0085503808093 240.221534320227 -2.66486832600776e-013
endloop
endfacet
facet normal -0.258819045102518 -0.965925826289069 -8.95448619496817e-016
outer loop
vertex 37.1402989431783 240.581175841243 -2.66486832600776e-013
vertex 38.0085503808093 240.221534320227 3.99999999999973
vertex 37.1402989431783 240.581175841243 3.99999999999973
endloop
endfacet
facet normal -0.258819045102518 -0.965925826289069 -8.95448619496817e-016
outer loop
vertex 37.1402989431783 240.581175841243 3.99999999999973
vertex 36.2085503808093 240.703842866603 -2.66486832600776e-013
vertex 37.1402989431783 240.581175841243 -2.66486832600776e-013
endloop
endfacet
facet normal 2.98522181504171e-015 -1.0 9.0860245196135e-030
outer loop
vertex 36.2085503808093 240.703842866603 -2.66486832600776e-013
vertex 37.1402989431783 240.581175841243 3.99999999999973
vertex 36.2085503808093 240.703842866603 3.99999999999973
endloop
endfacet
facet normal -0.707106781186548 -0.707106781186547 -2.44641112403274e-015
outer loop
vertex 38.7541347930808 239.649427278874 3.99999999999973
vertex 38.0085503808093 240.221534320227 -2.66486832600776e-013
vertex 38.7541347930809 239.649427278874 -2.66486832600776e-013
endloop
endfacet
facet normal -0.500000000000002 -0.866025403784437 -1.72987389537376e-015
outer loop
vertex 38.0085503808093 240.221534320227 -2.66486832600776e-013
vertex 38.7541347930808 239.649427278874 3.99999999999973
vertex 38.0085503808093 240.221534320227 3.99999999999973
endloop
endfacet
facet normal -1.0 1.96044417704232e-016 -3.4597477907475e-015
outer loop
vertex 39.8085503808093 237.103842866603 3.99999999999973
vertex 39.6858833554499 236.172094304234 -2.66486832600776e-013
vertex 39.6858833554499 236.172094304234 3.99999999999973
endloop
endfacet
facet normal -0.965925826289069 0.25881904510252 -3.34185974352956e-015
outer loop
vertex 39.6858833554499 236.172094304234 -2.66486832600776e-013
vertex 39.8085503808093 237.103842866603 3.99999999999973
vertex 39.8085503808093 237.103842866603 -2.66486832600776e-013
endloop
endfacet
facet normal -0.965925826289069 0.25881904510252 -3.34185974352956e-015
outer loop
vertex 39.6858833554499 236.172094304234 3.99999999999973
vertex 39.3262418344333 235.303842866603 -2.66486832600776e-013
vertex 39.3262418344332 235.303842866603 3.99999999999973
endloop
endfacet
facet normal -0.866025403784438 0.500000000000002 -2.99622947747442e-015
outer loop
vertex 39.3262418344333 235.303842866603 -2.66486832600776e-013
vertex 39.6858833554499 236.172094304234 3.99999999999973
vertex 39.6858833554499 236.172094304234 -2.66486832600776e-013
endloop
endfacet
facet normal -0.866025403784437 0.500000000000002 -2.99622947747442e-015
outer loop
vertex 39.3262418344332 235.303842866603 3.99999999999973
vertex 38.7541347930809 234.558258454331 -2.66486832600776e-013
vertex 38.7541347930808 234.558258454331 3.99999999999973
endloop
endfacet
facet normal -0.707106781186548 0.707106781186547 -2.44641112403274e-015
outer loop
vertex 38.7541347930809 234.558258454331 -2.66486832600776e-013
vertex 39.3262418344332 235.303842866603 3.99999999999973
vertex 39.3262418344333 235.303842866603 -2.66486832600776e-013
endloop
endfacet
facet normal -0.965925826289069 -0.258819045102519 -5.44742440483093e-015
outer loop
vertex 119.68588335545 238.035591428972 4.0
vertex 119.808550380809 237.103842866603 -1.40998324127395e-015
vertex 119.808550380809 237.103842866603 4.0
endloop
endfacet
facet normal -1.0 -7.84177670816927e-016 -5.63958873090603e-015
outer loop
vertex 119.808550380809 237.103842866603 -1.40998324127395e-015
vertex 119.68588335545 238.035591428972 4.0
vertex 119.68588335545 238.035591428972 -1.40998324127395e-015
endloop
endfacet
facet normal -1.0 -7.84177670816926e-016 -5.63958873090603e-015
outer loop
vertex 119.808550380809 237.103842866603 4.0
vertex 119.68588335545 236.172094304234 -1.40998324127395e-015
vertex 119.68588335545 236.172094304234 4.0
endloop
endfacet
facet normal -0.965925826289068 0.258819045102521 -5.44742440483093e-015
outer loop
vertex 119.68588335545 236.172094304234 -1.40998324127395e-015
vertex 119.808550380809 237.103842866603 4.0
vertex 119.808550380809 237.103842866603 -1.40998324127395e-015
endloop
endfacet
facet normal -0.965925826289068 0.258819045102521 -5.44742440483093e-015
outer loop
vertex 119.68588335545 236.172094304234 4.0
vertex 119.326241834433 235.303842866603 -1.40998324127395e-015
vertex 119.326241834433 235.303842866603 4.0
endloop
endfacet
facet normal -0.866025403784437 0.500000000000002 -4.88402710786106e-015
outer loop
vertex 119.326241834433 235.303842866603 -1.40998324127395e-015
vertex 119.68588335545 236.172094304234 4.0
vertex 119.68588335545 236.172094304234 -1.40998324127395e-015
endloop
endfacet
facet normal -0.866025403784437 0.500000000000003 -4.88402710786106e-015
outer loop
vertex 119.326241834433 235.303842866603 4.0
vertex 118.754134793081 234.558258454331 -1.40998324127395e-015
vertex 118.754134793081 234.558258454331 4.0
endloop
endfacet
facet normal -0.707106781186548 0.707106781186547 -3.98779143472689e-015
outer loop
vertex 118.754134793081 234.558258454331 -1.40998324127395e-015
vertex 119.326241834433 235.303842866603 4.0
vertex 119.326241834433 235.303842866603 -1.40998324127395e-015
endloop
endfacet
facet normal -0.499999999999997 0.86602540378444 -2.819794365453e-015
outer loop
vertex 118.008550380809 233.986151412979 4.0
vertex 118.754134793081 234.558258454331 -1.40998324127395e-015
vertex 118.008550380809 233.986151412979 -1.40998324127395e-015
endloop
endfacet
facet normal -0.707106781186548 0.707106781186547 -3.98779143472689e-015
outer loop
vertex 118.754134793081 234.558258454331 -1.40998324127395e-015
vertex 118.008550380809 233.986151412979 4.0
vertex 118.754134793081 234.558258454331 4.0
endloop
endfacet
facet normal -0.258819045102521 0.965925826289068 -1.45963297010404e-015
outer loop
vertex 117.140298943178 233.626509891962 4.0
vertex 118.008550380809 233.986151412979 -1.40998324127395e-015
vertex 117.140298943178 233.626509891962 -1.40998324127395e-015
endloop
endfacet
facet normal -0.499999999999998 0.86602540378444 -2.819794365453e-015
outer loop
vertex 118.008550380809 233.986151412979 -1.40998324127395e-015
vertex 117.140298943178 233.626509891962 4.0
vertex 118.008550380809 233.986151412979 4.0
endloop
endfacet
facet normal 4.54466604677992e-016 1.0 2.59600700560386e-030
outer loop
vertex 116.208550380809 233.503842866603 4.0
vertex 117.140298943178 233.626509891962 -1.40998324127395e-015
vertex 116.208550380809 233.503842866603 -1.40998324127395e-015
endloop
endfacet
facet normal -0.258819045102522 0.965925826289068 -1.45963297010404e-015
outer loop
vertex 117.140298943178 233.626509891962 -1.40998324127395e-015
vertex 116.208550380809 233.503842866603 4.0
vertex 117.140298943178 233.626509891962 4.0
endloop
endfacet
facet normal 0.258819045102522 0.965925826289068 1.45963297010404e-015
outer loop
vertex 115.27680181844 233.626509891962 4.0
vertex 116.208550380809 233.503842866603 -1.40998324127395e-015
vertex 115.27680181844 233.626509891962 -1.40998324127395e-015
endloop
endfacet
facet normal -4.72288824469286e-016 1.0 -2.7226414936821e-030
outer loop
vertex 116.208550380809 233.503842866603 -1.40998324127395e-015
vertex 115.27680181844 233.626509891962 4.0
vertex 116.208550380809 233.503842866603 4.0
endloop
endfacet
facet normal 0.499999999999998 0.86602540378444 2.819794365453e-015
outer loop
vertex 114.408550380809 233.986151412979 4.0
vertex 115.27680181844 233.626509891962 -1.40998324127395e-015
vertex 114.408550380809 233.986151412979 -1.40998324127395e-015
endloop
endfacet
facet normal 0.258819045102521 0.965925826289068 1.45963297010404e-015
outer loop
vertex 115.27680181844 233.626509891962 -1.40998324127395e-015
vertex 114.408550380809 233.986151412979 4.0
vertex 115.27680181844 233.626509891962 4.0
endloop
endfacet
facet normal 0.707106781186548 0.707106781186547 3.98779143472689e-015
outer loop
vertex 113.662965968538 234.558258454331 4.0
vertex 114.408550380809 233.986151412979 -1.40998324127395e-015
vertex 113.662965968538 234.558258454331 -1.40998324127395e-015
endloop
endfacet
facet normal 0.499999999999997 0.86602540378444 2.819794365453e-015
outer loop
vertex 114.408550380809 233.986151412979 -1.40998324127395e-015
vertex 113.662965968538 234.558258454331 4.0
vertex 114.408550380809 233.986151412979 4.0
endloop
endfacet
facet normal 0.866025403784438 0.5 4.88402710786106e-015
outer loop
vertex 113.090858927185 235.303842866603 -1.40998324127395e-015
vertex 113.662965968538 234.558258454331 4.0
vertex 113.662965968538 234.558258454331 -1.40998324127395e-015
endloop
endfacet
facet normal 0.707106781186548 0.707106781186547 3.98779143472689e-015
outer loop
vertex 113.662965968538 234.558258454331 4.0
vertex 113.090858927185 235.303842866603 -1.40998324127395e-015
vertex 113.090858927185 235.303842866603 4.0
endloop
endfacet
facet normal 0.965925826289069 0.258819045102519 5.44742440483093e-015
outer loop
vertex 112.731217406169 236.172094304234 -1.40998324127395e-015
vertex 113.090858927185 235.303842866603 4.0
vertex 113.090858927185 235.303842866603 -1.40998324127395e-015
endloop
endfacet
facet normal 0.866025403784439 0.5 4.88402710786107e-015
outer loop
vertex 113.090858927185 235.303842866603 4.0
vertex 112.731217406169 236.172094304234 -1.40998324127395e-015
vertex 112.731217406169 236.172094304234 4.0
endloop
endfacet
facet normal 1.0 7.84177670816926e-016 5.63958873090603e-015
outer loop
vertex 112.608550380809 237.103842866603 -1.40998324127395e-015
vertex 112.731217406169 236.172094304234 4.0
vertex 112.731217406169 236.172094304234 -1.40998324127395e-015
endloop
endfacet
facet normal 0.965925826289069 0.258819045102519 5.44742440483093e-015
outer loop
vertex 112.731217406169 236.172094304234 4.0
vertex 112.608550380809 237.103842866603 -1.40998324127395e-015
vertex 112.608550380809 237.103842866603 4.0
endloop
endfacet
facet normal 0.965925826289068 -0.258819045102521 5.44742440483093e-015
outer loop
vertex 112.731217406169 238.035591428972 -1.40998324127395e-015
vertex 112.608550380809 237.103842866603 4.0
vertex 112.608550380809 237.103842866603 -1.40998324127395e-015
endloop
endfacet
facet normal 1.0 7.84177670816927e-016 5.63958873090603e-015
outer loop
vertex 112.608550380809 237.103842866603 4.0
vertex 112.731217406169 238.035591428972 -1.40998324127395e-015
vertex 112.731217406169 238.035591428972 4.0
endloop
endfacet
facet normal 0.866025403784437 -0.500000000000003 4.88402710786106e-015
outer loop
vertex 113.090858927185 238.903842866603 -1.40998324127395e-015
vertex 112.731217406169 238.035591428972 4.0
vertex 112.731217406169 238.035591428972 -1.40998324127395e-015
endloop
endfacet
facet normal 0.965925826289068 -0.258819045102521 5.44742440483093e-015
outer loop
vertex 112.731217406169 238.035591428972 4.0
vertex 113.090858927185 238.903842866603 -1.40998324127395e-015
vertex 113.090858927185 238.903842866603 4.0
endloop
endfacet
facet normal 0.707106781186547 -0.707106781186548 3.98779143472689e-015
outer loop
vertex 113.662965968538 239.649427278874 -1.40998324127395e-015
vertex 113.090858927185 238.903842866603 4.0
vertex 113.090858927185 238.903842866603 -1.40998324127395e-015
endloop
endfacet
facet normal 0.866025403784437 -0.500000000000002 4.88402710786106e-015
outer loop
vertex 113.090858927185 238.903842866603 4.0
vertex 113.662965968538 239.649427278874 -1.40998324127395e-015
vertex 113.662965968538 239.649427278874 4.0
endloop
endfacet
facet normal 0.499999999999998 -0.86602540378444 2.819794365453e-015
outer loop
vertex 114.408550380809 240.221534320227 4.0
vertex 113.662965968538 239.649427278874 -1.40998324127395e-015
vertex 114.408550380809 240.221534320227 -1.40998324127395e-015
endloop
endfacet
facet normal 0.707106781186547 -0.707106781186548 3.98779143472689e-015
outer loop
vertex 113.662965968538 239.649427278874 -1.40998324127395e-015
vertex 114.408550380809 240.221534320227 4.0
vertex 113.662965968538 239.649427278874 4.0
endloop
endfacet
facet normal 0.258819045102522 -0.965925826289068 1.45963297010404e-015
outer loop
vertex 115.27680181844 240.581175841243 4.0
vertex 114.408550380809 240.221534320227 -1.40998324127395e-015
vertex 115.27680181844 240.581175841243 -1.40998324127395e-015
endloop
endfacet
facet normal 0.499999999999997 -0.86602540378444 2.819794365453e-015
outer loop
vertex 114.408550380809 240.221534320227 -1.40998324127395e-015
vertex 115.27680181844 240.581175841243 4.0
vertex 114.408550380809 240.221534320227 4.0
endloop
endfacet
facet normal 4.72288824469286e-016 -1.0 2.7226414936821e-030
outer loop
vertex 116.208550380809 240.703842866603 4.0
vertex 115.27680181844 240.581175841243 -1.40998324127395e-015
vertex 116.208550380809 240.703842866603 -1.40998324127395e-015
endloop
endfacet
facet normal 0.258819045102521 -0.965925826289068 1.45963297010404e-015
outer loop
vertex 115.27680181844 240.581175841243 -1.40998324127395e-015
vertex 116.208550380809 240.703842866603 4.0
vertex 115.27680181844 240.581175841243 4.0
endloop
endfacet
facet normal -0.258819045102521 -0.965925826289068 -1.45963297010404e-015
outer loop
vertex 117.140298943178 240.581175841243 4.0
vertex 116.208550380809 240.703842866603 -1.40998324127395e-015
vertex 117.140298943178 240.581175841243 -1.40998324127395e-015
endloop
endfacet
facet normal -4.54466604677992e-016 -1.0 -2.59600700560386e-030
outer loop
vertex 116.208550380809 240.703842866603 -1.40998324127395e-015
vertex 117.140298943178 240.581175841243 4.0
vertex 116.208550380809 240.703842866603 4.0
endloop
endfacet
facet normal -0.499999999999997 -0.86602540378444 -2.819794365453e-015
outer loop
vertex 118.008550380809 240.221534320227 4.0
vertex 117.140298943178 240.581175841243 -1.40998324127395e-015
vertex 118.008550380809 240.221534320227 -1.40998324127395e-015
endloop
endfacet
facet normal -0.258819045102522 -0.965925826289068 -1.45963297010404e-015
outer loop
vertex 117.140298943178 240.581175841243 -1.40998324127395e-015
vertex 118.008550380809 240.221534320227 4.0
vertex 117.140298943178 240.581175841243 4.0
endloop
endfacet
facet normal -0.707106781186547 -0.707106781186548 -3.98779143472689e-015
outer loop
vertex 118.754134793081 239.649427278874 4.0
vertex 118.008550380809 240.221534320227 -1.40998324127395e-015
vertex 118.754134793081 239.649427278874 -1.40998324127395e-015
endloop
endfacet
facet normal -0.499999999999998 -0.86602540378444 -2.819794365453e-015
outer loop
vertex 118.008550380809 240.221534320227 -1.40998324127395e-015
vertex 118.754134793081 239.649427278874 4.0
vertex 118.008550380809 240.221534320227 4.0
endloop
endfacet
facet normal -0.707106781186547 -0.707106781186548 -3.98779143472689e-015
outer loop
vertex 118.754134793081 239.649427278874 4.0
vertex 119.326241834433 238.903842866603 -1.40998324127395e-015
vertex 119.326241834433 238.903842866603 4.0
endloop
endfacet
facet normal -0.866025403784439 -0.5 -4.88402710786107e-015
outer loop
vertex 119.326241834433 238.903842866603 -1.40998324127395e-015
vertex 118.754134793081 239.649427278874 4.0
vertex 118.754134793081 239.649427278874 -1.40998324127395e-015
endloop
endfacet
facet normal -0.866025403784438 -0.5 -4.88402710786106e-015
outer loop
vertex 119.326241834433 238.903842866603 4.0
vertex 119.68588335545 238.035591428972 -1.40998324127395e-015
vertex 119.68588335545 238.035591428972 4.0
endloop
endfacet
facet normal -0.965925826289069 -0.258819045102519 -5.44742440483093e-015
outer loop
vertex 119.68588335545 238.035591428972 -1.40998324127395e-015
vertex 119.326241834433 238.903842866603 4.0
vertex 119.326241834433 238.903842866603 -1.40998324127395e-015
endloop
endfacet
facet normal -1.12798659301916e-015 1.0 -2.84622884039802e-030
outer loop
vertex 36.2085503808093 242.603842866603 3.99999999999973
vertex 116.208550380809 242.603842866603 -1.40998324127395e-015
vertex 36.2085503808093 242.603842866603 -2.66486832600776e-013
endloop
endfacet
facet normal -1.12798659301916e-015 1.0 -2.84622884039802e-030
outer loop
vertex 116.208550380809 242.603842866603 -1.40998324127395e-015
vertex 36.2085503808093 242.603842866603 3.99999999999973
vertex 116.208550380809 242.603842866603 4.0
endloop
endfacet
facet normal 7.71780300486793e-016 -1.0 2.97198538358648e-028
outer loop
vertex 116.208550380809 231.603842866603 -1.40998324127395e-015
vertex 36.2085503808093 231.603842866603 3.99999999999973
vertex 36.2085503808093 231.603842866603 -2.66486832600776e-013
endloop
endfacet
facet normal 7.71780300486793e-016 -1.0 2.97198538358648e-028
outer loop
vertex 36.2085503808093 231.603842866603 3.99999999999973
vertex 116.208550380809 231.603842866603 -1.40998324127395e-015
vertex 116.208550380809 231.603842866603 4.0
endloop
endfacet
facet normal -3.06636949120921e-015 -2.79910406923935e-017 1.0
outer loop
vertex 30.8959583362194 235.680338118539 3.99999999999973
vertex 30.8959583362194 238.527347614666 3.99999999999973
vertex 30.7085503808092 237.103842866603 3.99999999999973
endloop
endfacet
facet normal -3.06636949120921e-015 -2.79910406923935e-017 1.0
outer loop
vertex 30.8959583362194 238.527347614666 3.99999999999973
vertex 30.8959583362194 235.680338118539 3.99999999999973
vertex 31.4454106599948 234.353842866603 3.99999999999973
endloop
endfacet
facet normal -3.06636949120921e-015 -2.79910406923935e-017 1.0
outer loop
vertex 30.8959583362194 238.527347614666 3.99999999999973
vertex 31.4454106599948 234.353842866603 3.99999999999973
vertex 31.4454106599948 239.853842866603 3.99999999999973
endloop
endfacet
facet normal -3.06636949120921e-015 -2.79910406923935e-017 1.0
outer loop
vertex 31.4454106599948 239.853842866603 3.99999999999973
vertex 31.4454106599948 234.353842866603 3.99999999999973
vertex 32.3194630842833 233.214755570077 3.99999999999973
endloop
endfacet
facet normal -3.06636949120921e-015 -2.79910406923935e-017 1.0
outer loop
vertex 31.4454106599948 239.853842866603 3.99999999999973
vertex 32.3194630842833 233.214755570077 3.99999999999973
vertex 32.3194630842833 240.992930163129 3.99999999999973
endloop
endfacet
facet normal -3.06636949120921e-015 -2.79910406923935e-017 1.0
outer loop
vertex 32.3194630842833 240.992930163129 3.99999999999973
vertex 32.3194630842833 233.214755570077 3.99999999999973
vertex 32.6085503808093 237.103842866603 3.99999999999973
endloop
endfacet
facet normal -3.06636949120921e-015 -2.79910406923935e-017 1.0
outer loop
vertex 32.6085503808093 237.103842866603 3.99999999999973
vertex 32.3194630842833 233.214755570077 3.99999999999973
vertex 32.7312174061686 236.172094304234 3.99999999999973
endloop
endfacet
facet normal -3.06636949120921e-015 -2.79910406923935e-017 1.0
outer loop
vertex 32.7312174061686 236.172094304234 3.99999999999973
vertex 32.3194630842833 233.214755570077 3.99999999999973
vertex 33.4585503808093 232.340703145788 3.99999999999973
endloop
endfacet
facet normal -3.06636949120921e-015 -2.79910406923935e-017 1.0
outer loop
vertex 32.7312174061686 236.172094304234 3.99999999999973
vertex 33.4585503808093 232.340703145788 3.99999999999973
vertex 33.0908589271853 235.303842866603 3.99999999999973
endloop
endfacet
facet normal -3.06636949120921e-015 -2.79910406923935e-017 1.0
outer loop
vertex 33.0908589271853 235.303842866603 3.99999999999973
vertex 33.4585503808093 232.340703145788 3.99999999999973
vertex 33.6629659685377 234.558258454331 3.99999999999973
endloop
endfacet
facet normal -3.06636949120921e-015 -2.79910406923935e-017 1.0
outer loop
vertex 33.6629659685377 234.558258454331 3.99999999999973
vertex 33.4585503808093 232.340703145788 3.99999999999973
vertex 34.7850456327454 231.791250822013 3.99999999999973
endloop
endfacet
facet normal -3.06636949120921e-015 -2.79910406923935e-017 1.0
outer loop
vertex 33.6629659685377 234.558258454331 3.99999999999973
vertex 34.7850456327454 231.791250822013 3.99999999999973
vertex 34.4085503808093 233.986151412979 3.99999999999973
endloop
endfacet
facet normal -3.06636949120921e-015 -2.79910406923935e-017 1.0
outer loop
vertex 34.4085503808093 233.986151412979 3.99999999999973
vertex 34.7850456327454 231.791250822013 3.99999999999973
vertex 35.2768018184402 233.626509891962 3.99999999999973
endloop
endfacet
facet normal -3.06636949120921e-015 -2.79910406923935e-017 1.0
outer loop
vertex 35.2768018184402 233.626509891962 3.99999999999973
vertex 34.7850456327454 231.791250822013 3.99999999999973
vertex 36.2085503808093 231.603842866603 3.99999999999973
endloop
endfacet
facet normal -3.06636949120921e-015 -2.79910406923935e-017 1.0
outer loop
vertex 35.2768018184402 233.626509891962 3.99999999999973
vertex 36.2085503808093 231.603842866603 3.99999999999973
vertex 36.2085503808093 233.503842866603 3.99999999999973
endloop
endfacet
facet normal -3.06636949120921e-015 -2.79910406923935e-017 1.0
outer loop
vertex 36.2085503808093 233.503842866603 3.99999999999973
vertex 36.2085503808093 231.603842866603 3.99999999999973
vertex 116.208550380809 231.603842866603 4.0
endloop
endfacet
facet normal -3.06636949120921e-015 -2.79910406923935e-017 1.0
outer loop
vertex 36.2085503808093 233.503842866603 3.99999999999973
vertex 116.208550380809 231.603842866603 4.0
vertex 37.1402989431783 233.626509891962 3.99999999999973
endloop
endfacet
facet normal -3.06636949120921e-015 -2.79910406923935e-017 1.0
outer loop
vertex 37.1402989431783 233.626509891962 3.99999999999973
vertex 116.208550380809 231.603842866603 4.0
vertex 38.0085503808093 233.986151412979 3.99999999999973
endloop
endfacet
facet normal -3.06636949120921e-015 -2.79910406923935e-017 1.0
outer loop
vertex 38.0085503808093 233.986151412979 3.99999999999973
vertex 116.208550380809 231.603842866603 4.0
vertex 38.7541347930808 234.558258454331 3.99999999999973
endloop
endfacet
facet normal -3.06636949120921e-015 -2.79910406923935e-017 1.0
outer loop
vertex 38.7541347930808 234.558258454331 3.99999999999973
vertex 116.208550380809 231.603842866603 4.0
vertex 39.3262418344332 235.303842866603 3.99999999999973
endloop
endfacet
facet normal -3.06636949120921e-015 -2.79910406923935e-017 1.0
outer loop
vertex 39.3262418344332 235.303842866603 3.99999999999973
vertex 116.208550380809 231.603842866603 4.0
vertex 39.6858833554499 236.172094304234 3.99999999999973
endloop
endfacet
facet normal -3.06636949120921e-015 -2.79910406923935e-017 1.0
outer loop
vertex 39.6858833554499 236.172094304234 3.99999999999973
vertex 116.208550380809 231.603842866603 4.0
vertex 39.8085503808093 237.103842866603 3.99999999999973
endloop
endfacet
facet normal -3.06636949120921e-015 -2.79910406923935e-017 1.0
outer loop
vertex 39.8085503808093 237.103842866603 3.99999999999973
vertex 116.208550380809 231.603842866603 4.0
vertex 113.662965968538 234.558258454331 4.0
endloop
endfacet
facet normal -3.06636949120921e-015 -2.79910406923935e-017 1.0
outer loop
vertex 39.8085503808093 237.103842866603 3.99999999999973
vertex 113.662965968538 234.558258454331 4.0
vertex 113.090858927185 235.303842866603 4.0
endloop
endfacet
facet normal -3.06636949120921e-015 -2.79910406923935e-017 1.0
outer loop
vertex 39.8085503808093 237.103842866603 3.99999999999973
vertex 113.090858927185 235.303842866603 4.0
vertex 112.731217406169 236.172094304234 4.0
endloop
endfacet
facet normal -3.06636949120921e-015 -2.79910406923935e-017 1.0
outer loop
vertex 39.8085503808093 237.103842866603 3.99999999999973
vertex 112.731217406169 236.172094304234 4.0
vertex 112.608550380809 237.103842866603 4.0
endloop
endfacet
facet normal -3.06636949120921e-015 -2.79910406923935e-017 1.0
outer loop
vertex 113.662965968538 234.558258454331 4.0
vertex 116.208550380809 231.603842866603 4.0
vertex 114.408550380809 233.986151412979 4.0
endloop
endfacet
facet normal -3.06636949120921e-015 -2.79910406923935e-017 1.0
outer loop
vertex 114.408550380809 233.986151412979 4.0
vertex 116.208550380809 231.603842866603 4.0
vertex 115.27680181844 233.626509891962 4.0
endloop
endfacet
facet normal -3.06636949120921e-015 -2.79910406923935e-017 1.0
outer loop
vertex 115.27680181844 233.626509891962 4.0
vertex 116.208550380809 231.603842866603 4.0
vertex 116.208550380809 233.503842866603 4.0
endloop
endfacet
facet normal -3.06636949120921e-015 -2.79910406923935e-017 1.0
outer loop
vertex 116.208550380809 233.503842866603 4.0
vertex 116.208550380809 231.603842866603 4.0
vertex 117.632055128873 231.791250822013 4.0
endloop
endfacet
facet normal -3.06636949120921e-015 -2.79910406923935e-017 1.0
outer loop
vertex 116.208550380809 233.503842866603 4.0
vertex 117.632055128873 231.791250822013 4.0
vertex 117.140298943178 233.626509891962 4.0
endloop
endfacet
facet normal -3.06636949120921e-015 -2.79910406923935e-017 1.0
outer loop
vertex 117.140298943178 233.626509891962 4.0
vertex 117.632055128873 231.791250822013 4.0
vertex 118.008550380809 233.986151412979 4.0
endloop
endfacet
facet normal -3.06636949120921e-015 -2.79910406923935e-017 1.0
outer loop
vertex 118.008550380809 233.986151412979 4.0
vertex 117.632055128873 231.791250822013 4.0
vertex 118.958550380809 232.340703145788 4.0
endloop
endfacet
facet normal -3.06636949120921e-015 -2.79910406923935e-017 1.0
outer loop
vertex 118.008550380809 233.986151412979 4.0
vertex 118.958550380809 232.340703145788 4.0
vertex 118.754134793081 234.558258454331 4.0
endloop
endfacet
facet normal -3.06636949120921e-015 -2.79910406923935e-017 1.0
outer loop
vertex 118.754134793081 234.558258454331 4.0
vertex 118.958550380809 232.340703145788 4.0
vertex 119.326241834433 235.303842866603 4.0
endloop
endfacet
facet normal -3.06636949120921e-015 -2.79910406923935e-017 1.0
outer loop
vertex 119.326241834433 235.303842866603 4.0
vertex 118.958550380809 232.340703145788 4.0
vertex 120.097637677335 233.214755570077 4.0
endloop
endfacet
facet normal -3.06636949120921e-015 -2.79910406923935e-017 1.0
outer loop
vertex 119.326241834433 235.303842866603 4.0
vertex 120.097637677335 233.214755570077 4.0
vertex 119.68588335545 236.172094304234 4.0
endloop
endfacet
facet normal -3.06636949120921e-015 -2.79910406923935e-017 1.0
outer loop
vertex 119.68588335545 236.172094304234 4.0
vertex 120.097637677335 233.214755570077 4.0
vertex 119.808550380809 237.103842866603 4.0
endloop
endfacet
facet normal -3.06636949120921e-015 -2.79910406923935e-017 1.0
outer loop
vertex 32.3194630842833 240.992930163129 3.99999999999973
vertex 32.7312174061686 238.035591428972 3.99999999999973
vertex 33.4585503808093 241.866982587417 3.99999999999973
endloop
endfacet
facet normal -3.06636949120921e-015 -2.79910406923935e-017 1.0
outer loop
vertex 32.7312174061686 238.035591428972 3.99999999999973
vertex 32.3194630842833 240.992930163129 3.99999999999973
vertex 32.6085503808093 237.103842866603 3.99999999999973
endloop
endfacet
facet normal -3.06636949120921e-015 -2.79910406923935e-017 1.0
outer loop
vertex 33.4585503808093 241.866982587417 3.99999999999973
vertex 32.7312174061686 238.035591428972 3.99999999999973
vertex 33.0908589271853 238.903842866603 3.99999999999973
endloop
endfacet
facet normal -3.06636949120921e-015 -2.79910406923935e-017 1.0
outer loop
vertex 33.4585503808093 241.866982587417 3.99999999999973
vertex 33.0908589271853 238.903842866603 3.99999999999973
vertex 33.6629659685377 239.649427278874 3.99999999999973
endloop
endfacet
facet normal -3.06636949120921e-015 -2.79910406923935e-017 1.0
outer loop
vertex 33.4585503808093 241.866982587417 3.99999999999973
vertex 33.6629659685377 239.649427278874 3.99999999999973
vertex 34.7850456327454 242.416434911192 3.99999999999973
endloop
endfacet
facet normal -3.06636949120921e-015 -2.79910406923935e-017 1.0
outer loop
vertex 34.7850456327454 242.416434911192 3.99999999999973
vertex 33.6629659685377 239.649427278874 3.99999999999973
vertex 34.4085503808093 240.221534320227 3.99999999999973
endloop
endfacet
facet normal -3.06636949120921e-015 -2.79910406923935e-017 1.0
outer loop
vertex 34.7850456327454 242.416434911192 3.99999999999973
vertex 34.4085503808093 240.221534320227 3.99999999999973
vertex 35.2768018184402 240.581175841243 3.99999999999973
endloop
endfacet
facet normal -3.06636949120921e-015 -2.79910406923935e-017 1.0
outer loop
vertex 34.7850456327454 242.416434911192 3.99999999999973
vertex 35.2768018184402 240.581175841243 3.99999999999973
vertex 36.2085503808093 242.603842866603 3.99999999999973
endloop
endfacet
facet normal -3.06636949120921e-015 -2.79910406923935e-017 1.0
outer loop
vertex 36.2085503808093 242.603842866603 3.99999999999973
vertex 35.2768018184402 240.581175841243 3.99999999999973
vertex 36.2085503808093 240.703842866603 3.99999999999973
endloop
endfacet
facet normal -3.06636949120921e-015 -2.79910406923935e-017 1.0
outer loop
vertex 36.2085503808093 242.603842866603 3.99999999999973
vertex 36.2085503808093 240.703842866603 3.99999999999973
vertex 37.1402989431783 240.581175841243 3.99999999999973
endloop
endfacet
facet normal -3.06636949120921e-015 -2.79910406923935e-017 1.0
outer loop
vertex 36.2085503808093 242.603842866603 3.99999999999973
vertex 37.1402989431783 240.581175841243 3.99999999999973
vertex 116.208550380809 242.603842866603 4.0
endloop
endfacet
facet normal -3.06636949120921e-015 -2.79910406923935e-017 1.0
outer loop
vertex 116.208550380809 242.603842866603 4.0
vertex 37.1402989431783 240.581175841243 3.99999999999973
vertex 38.0085503808093 240.221534320227 3.99999999999973
endloop
endfacet
facet normal -3.06636949120921e-015 -2.79910406923935e-017 1.0
outer loop
vertex 116.208550380809 242.603842866603 4.0
vertex 38.0085503808093 240.221534320227 3.99999999999973
vertex 38.7541347930808 239.649427278874 3.99999999999973
endloop
endfacet
facet normal -3.06636949120921e-015 -2.79910406923935e-017 1.0
outer loop
vertex 116.208550380809 242.603842866603 4.0
vertex 38.7541347930808 239.649427278874 3.99999999999973
vertex 39.3262418344332 238.903842866603 3.99999999999973
endloop
endfacet
facet normal -3.06636949120921e-015 -2.79910406923935e-017 1.0
outer loop
vertex 116.208550380809 242.603842866603 4.0
vertex 39.3262418344332 238.903842866603 3.99999999999973
vertex 39.6858833554499 238.035591428972 3.99999999999973
endloop
endfacet
facet normal -3.06636949120921e-015 -2.79910406923935e-017 1.0
outer loop
vertex 116.208550380809 242.603842866603 4.0
vertex 39.6858833554499 238.035591428972 3.99999999999973
vertex 39.8085503808093 237.103842866603 3.99999999999973
endloop
endfacet
facet normal -3.06636949120921e-015 -2.79910406923935e-017 1.0
outer loop
vertex 116.208550380809 242.603842866603 4.0
vertex 39.8085503808093 237.103842866603 3.99999999999973
vertex 113.662965968538 239.649427278874 4.0
endloop
endfacet
facet normal -3.06636949120921e-015 -2.79910406923935e-017 1.0
outer loop
vertex 113.662965968538 239.649427278874 4.0
vertex 39.8085503808093 237.103842866603 3.99999999999973
vertex 113.090858927185 238.903842866603 4.0
endloop
endfacet
facet normal -3.06636949120921e-015 -2.79910406923935e-017 1.0
outer loop
vertex 113.090858927185 238.903842866603 4.0
vertex 39.8085503808093 237.103842866603 3.99999999999973
vertex 112.731217406169 238.035591428972 4.0
endloop
endfacet
facet normal -3.06636949120921e-015 -2.79910406923935e-017 1.0
outer loop
vertex 112.731217406169 238.035591428972 4.0
vertex 39.8085503808093 237.103842866603 3.99999999999973
vertex 112.608550380809 237.103842866603 4.0
endloop
endfacet
facet normal -3.06636949120921e-015 -2.79910406923935e-017 1.0
outer loop
vertex 116.208550380809 242.603842866603 4.0
vertex 113.662965968538 239.649427278874 4.0
vertex 114.408550380809 240.221534320227 4.0
endloop
endfacet
facet normal -3.06636949120921e-015 -2.79910406923935e-017 1.0
outer loop
vertex 116.208550380809 242.603842866603 4.0
vertex 114.408550380809 240.221534320227 4.0
vertex 115.27680181844 240.581175841243 4.0
endloop
endfacet
facet normal -3.06636949120921e-015 -2.79910406923935e-017 1.0
outer loop
vertex 116.208550380809 242.603842866603 4.0
vertex 115.27680181844 240.581175841243 4.0
vertex 116.208550380809 240.703842866603 4.0
endloop
endfacet
facet normal -3.06636949120921e-015 -2.79910406923935e-017 1.0
outer loop
vertex 116.208550380809 242.603842866603 4.0
vertex 116.208550380809 240.703842866603 4.0
vertex 117.140298943178 240.581175841243 4.0
endloop
endfacet
facet normal -3.06636949120921e-015 -2.79910406923935e-017 1.0
outer loop
vertex 116.208550380809 242.603842866603 4.0
vertex 117.140298943178 240.581175841243 4.0
vertex 117.632055128873 242.416434911193 4.0
endloop
endfacet
facet normal -3.06636949120921e-015 -2.79910406923935e-017 1.0
outer loop
vertex 117.632055128873 242.416434911193 4.0
vertex 117.140298943178 240.581175841243 4.0
vertex 118.008550380809 240.221534320227 4.0
endloop
endfacet
facet normal -3.06636949120921e-015 -2.79910406923935e-017 1.0
outer loop
vertex 117.632055128873 242.416434911193 4.0
vertex 118.008550380809 240.221534320227 4.0
vertex 118.958550380809 241.866982587417 4.0
endloop
endfacet
facet normal -3.06636949120921e-015 -2.79910406923935e-017 1.0
outer loop
vertex 118.958550380809 241.866982587417 4.0
vertex 118.008550380809 240.221534320227 4.0
vertex 118.754134793081 239.649427278874 4.0
endloop
endfacet
facet normal -3.06636949120921e-015 -2.79910406923935e-017 1.0
outer loop
vertex 118.958550380809 241.866982587417 4.0
vertex 118.754134793081 239.649427278874 4.0
vertex 119.326241834433 238.903842866603 4.0
endloop
endfacet
facet normal -3.06636949120921e-015 -2.79910406923935e-017 1.0
outer loop
vertex 118.958550380809 241.866982587417 4.0
vertex 119.326241834433 238.903842866603 4.0
vertex 120.097637677335 240.992930163129 4.0
endloop
endfacet
facet normal -3.06636949120921e-015 -2.79910406923935e-017 1.0
outer loop
vertex 120.097637677335 240.992930163129 4.0
vertex 119.326241834433 238.903842866603 4.0
vertex 119.68588335545 238.035591428972 4.0
endloop
endfacet
facet normal -3.06636949120921e-015 -2.79910406923935e-017 1.0
outer loop
vertex 120.097637677335 240.992930163129 4.0
vertex 119.68588335545 238.035591428972 4.0
vertex 119.808550380809 237.103842866603 4.0
endloop
endfacet
facet normal -3.06636949120921e-015 -2.79910406923935e-017 1.0
outer loop
vertex 120.097637677335 240.992930163129 4.0
vertex 119.808550380809 237.103842866603 4.0
vertex 120.097637677335 233.214755570077 4.0
endloop
endfacet
facet normal -3.06636949120921e-015 -2.79910406923935e-017 1.0
outer loop
vertex 120.097637677335 240.992930163129 4.0
vertex 120.097637677335 233.214755570077 4.0
vertex 120.971690101624 234.353842866603 4.0
endloop
endfacet
facet normal -3.06636949120921e-015 -2.79910406923935e-017 1.0
outer loop
vertex 120.097637677335 240.992930163129 4.0
vertex 120.971690101624 234.353842866603 4.0
vertex 120.971690101624 239.853842866603 4.0
endloop
endfacet
facet normal -3.06636949120921e-015 -2.79910406923935e-017 1.0
outer loop
vertex 120.971690101624 239.853842866603 4.0
vertex 120.971690101624 234.353842866603 4.0
vertex 121.521142425399 235.680338118539 4.0
endloop
endfacet
facet normal -3.06636949120921e-015 -2.79910406923935e-017 1.0
outer loop
vertex 120.971690101624 239.853842866603 4.0
vertex 121.521142425399 235.680338118539 4.0
vertex 121.521142425399 238.527347614667 4.0
endloop
endfacet
facet normal -3.06636949120921e-015 -2.79910406923935e-017 1.0
outer loop
vertex 121.521142425399 238.527347614667 4.0
vertex 121.521142425399 235.680338118539 4.0
vertex 121.708550380809 237.103842866603 4.0
endloop
endfacet
facet normal 3.16488070394351e-015 -1.70498582839028e-015 -1.0
outer loop
vertex 30.8959583362194 238.527347614666 -2.66486832600776e-013
vertex 30.8959583362194 235.680338118539 -2.66486832600776e-013
vertex 30.7085503808092 237.103842866603 -2.66486832600776e-013
endloop
endfacet
facet normal 3.16488070394351e-015 -1.70498582839028e-015 -1.0
outer loop
vertex 30.8959583362194 235.680338118539 -2.66486832600776e-013
vertex 30.8959583362194 238.527347614666 -2.66486832600776e-013
vertex 31.4454106599948 239.853842866603 -2.66486832600776e-013
endloop
endfacet
facet normal 3.16488070394351e-015 -1.70498582839028e-015 -1.0
outer loop
vertex 30.8959583362194 235.680338118539 -2.66486832600776e-013
vertex 31.4454106599948 239.853842866603 -2.66486832600776e-013
vertex 31.4454106599948 234.353842866603 -2.66486832600776e-013
endloop
endfacet
facet normal 3.16488070394351e-015 -1.70498582839028e-015 -1.0
outer loop
vertex 31.4454106599948 234.353842866603 -2.66486832600776e-013
vertex 31.4454106599948 239.853842866603 -2.66486832600776e-013
vertex 32.3194630842833 240.992930163129 -2.66486832600776e-013
endloop
endfacet
facet normal 3.16488070394351e-015 -1.70498582839028e-015 -1.0
outer loop
vertex 31.4454106599948 234.353842866603 -2.66486832600776e-013
vertex 32.3194630842833 240.992930163129 -2.66486832600776e-013
vertex 32.3194630842833 233.214755570077 -2.66486832600776e-013
endloop
endfacet
facet normal 3.16488070394351e-015 -1.70498582839028e-015 -1.0
outer loop
vertex 32.3194630842833 233.214755570077 -2.66486832600776e-013
vertex 32.3194630842833 240.992930163129 -2.66486832600776e-013
vertex 32.6085503808093 237.103842866603 -2.66486832600776e-013
endloop
endfacet
facet normal 3.16488070394351e-015 -1.70498582839028e-015 -1.0
outer loop
vertex 32.6085503808093 237.103842866603 -2.66486832600776e-013
vertex 32.3194630842833 240.992930163129 -2.66486832600776e-013
vertex 32.7312174061686 238.035591428972 -2.66486832600776e-013
endloop
endfacet
facet normal 3.16488070394351e-015 -1.70498582839028e-015 -1.0
outer loop
vertex 32.7312174061686 238.035591428972 -2.66486832600776e-013
vertex 32.3194630842833 240.992930163129 -2.66486832600776e-013
vertex 33.4585503808093 241.866982587417 -2.66486832600776e-013
endloop
endfacet
facet normal 3.16488070394351e-015 -1.70498582839028e-015 -1.0
outer loop
vertex 32.7312174061686 238.035591428972 -2.66486832600776e-013
vertex 33.4585503808093 241.866982587417 -2.66486832600776e-013
vertex 33.0908589271853 238.903842866603 -2.66486832600776e-013
endloop
endfacet
facet normal 3.16488070394351e-015 -1.70498582839028e-015 -1.0
outer loop
vertex 33.0908589271853 238.903842866603 -2.66486832600776e-013
vertex 33.4585503808093 241.866982587417 -2.66486832600776e-013
vertex 33.6629659685377 239.649427278874 -2.66486832600776e-013
endloop
endfacet
facet normal 3.16488070394351e-015 -1.70498582839028e-015 -1.0
outer loop
vertex 33.6629659685377 239.649427278874 -2.66486832600776e-013
vertex 33.4585503808093 241.866982587417 -2.66486832600776e-013
vertex 34.7850456327454 242.416434911192 -2.66486832600776e-013
endloop
endfacet
facet normal 3.16488070394351e-015 -1.70498582839028e-015 -1.0
outer loop
vertex 33.6629659685377 239.649427278874 -2.66486832600776e-013
vertex 34.7850456327454 242.416434911192 -2.66486832600776e-013
vertex 34.4085503808093 240.221534320227 -2.66486832600776e-013
endloop
endfacet
facet normal 3.16488070394351e-015 -1.70498582839028e-015 -1.0
outer loop
vertex 34.4085503808093 240.221534320227 -2.66486832600776e-013
vertex 34.7850456327454 242.416434911192 -2.66486832600776e-013
vertex 35.2768018184402 240.581175841243 -2.66486832600776e-013
endloop
endfacet
facet normal 3.16488070394351e-015 -1.70498582839028e-015 -1.0
outer loop
vertex 35.2768018184402 240.581175841243 -2.66486832600776e-013
vertex 34.7850456327454 242.416434911192 -2.66486832600776e-013
vertex 36.2085503808093 242.603842866603 -2.66486832600776e-013
endloop
endfacet
facet normal 3.16488070394351e-015 -1.70498582839028e-015 -1.0
outer loop
vertex 35.2768018184402 240.581175841243 -2.66486832600776e-013
vertex 36.2085503808093 242.603842866603 -2.66486832600776e-013
vertex 36.2085503808093 240.703842866603 -2.66486832600776e-013
endloop
endfacet
facet normal 3.16488070394351e-015 -1.70498582839028e-015 -1.0
outer loop
vertex 36.2085503808093 240.703842866603 -2.66486832600776e-013
vertex 36.2085503808093 242.603842866603 -2.66486832600776e-013
vertex 116.208550380809 242.603842866603 -1.40998324127395e-015
endloop
endfacet
facet normal 3.16488070394351e-015 -1.70498582839028e-015 -1.0
outer loop
vertex 36.2085503808093 240.703842866603 -2.66486832600776e-013
vertex 116.208550380809 242.603842866603 -1.40998324127395e-015
vertex 37.1402989431783 240.581175841243 -2.66486832600776e-013
endloop
endfacet
facet normal 3.16488070394351e-015 -1.70498582839028e-015 -1.0
outer loop
vertex 37.1402989431783 240.581175841243 -2.66486832600776e-013
vertex 116.208550380809 242.603842866603 -1.40998324127395e-015
vertex 38.0085503808093 240.221534320227 -2.66486832600776e-013
endloop
endfacet
facet normal 3.16488070394351e-015 -1.70498582839028e-015 -1.0
outer loop
vertex 38.0085503808093 240.221534320227 -2.66486832600776e-013
vertex 116.208550380809 242.603842866603 -1.40998324127395e-015
vertex 38.7541347930809 239.649427278874 -2.66486832600776e-013
endloop
endfacet
facet normal 3.16488070394351e-015 -1.70498582839028e-015 -1.0
outer loop
vertex 38.7541347930809 239.649427278874 -2.66486832600776e-013
vertex 116.208550380809 242.603842866603 -1.40998324127395e-015
vertex 39.3262418344333 238.903842866603 -2.66486832600776e-013
endloop
endfacet
facet normal 3.16488070394351e-015 -1.70498582839028e-015 -1.0
outer loop
vertex 39.3262418344333 238.903842866603 -2.66486832600776e-013
vertex 116.208550380809 242.603842866603 -1.40998324127395e-015
vertex 39.6858833554499 238.035591428972 -2.66486832600776e-013
endloop
endfacet
facet normal 3.16488070394351e-015 -1.70498582839028e-015 -1.0
outer loop
vertex 39.6858833554499 238.035591428972 -2.66486832600776e-013
vertex 116.208550380809 242.603842866603 -1.40998324127395e-015
vertex 39.8085503808093 237.103842866603 -2.66486832600776e-013
endloop
endfacet
facet normal 3.16488070394351e-015 -1.70498582839028e-015 -1.0
outer loop
vertex 39.8085503808093 237.103842866603 -2.66486832600776e-013
vertex 116.208550380809 242.603842866603 -1.40998324127395e-015
vertex 113.662965968538 239.649427278874 -1.40998324127395e-015
endloop
endfacet
facet normal 3.16488070394351e-015 -1.70498582839028e-015 -1.0
outer loop
vertex 39.8085503808093 237.103842866603 -2.66486832600776e-013
vertex 113.662965968538 239.649427278874 -1.40998324127395e-015
vertex 113.090858927185 238.903842866603 -1.40998324127395e-015
endloop
endfacet
facet normal 3.16488070394351e-015 -1.70498582839028e-015 -1.0
outer loop
vertex 39.8085503808093 237.103842866603 -2.66486832600776e-013
vertex 113.090858927185 238.903842866603 -1.40998324127395e-015
vertex 112.731217406169 238.035591428972 -1.40998324127395e-015
endloop
endfacet
facet normal 3.16488070394351e-015 -1.70498582839028e-015 -1.0
outer loop
vertex 39.8085503808093 237.103842866603 -2.66486832600776e-013
vertex 112.731217406169 238.035591428972 -1.40998324127395e-015
vertex 112.608550380809 237.103842866603 -1.40998324127395e-015
endloop
endfacet
facet normal 3.16488070394351e-015 -1.70498582839028e-015 -1.0
outer loop
vertex 113.662965968538 239.649427278874 -1.40998324127395e-015
vertex 116.208550380809 242.603842866603 -1.40998324127395e-015
vertex 114.408550380809 240.221534320227 -1.40998324127395e-015
endloop
endfacet
facet normal 3.16488070394351e-015 -1.70498582839028e-015 -1.0
outer loop
vertex 114.408550380809 240.221534320227 -1.40998324127395e-015
vertex 116.208550380809 242.603842866603 -1.40998324127395e-015
vertex 115.27680181844 240.581175841243 -1.40998324127395e-015
endloop
endfacet
facet normal 3.16488070394351e-015 -1.70498582839028e-015 -1.0
outer loop
vertex 115.27680181844 240.581175841243 -1.40998324127395e-015
vertex 116.208550380809 242.603842866603 -1.40998324127395e-015
vertex 116.208550380809 240.703842866603 -1.40998324127395e-015
endloop
endfacet
facet normal 3.16488070394351e-015 -1.70498582839028e-015 -1.0
outer loop
vertex 116.208550380809 240.703842866603 -1.40998324127395e-015
vertex 116.208550380809 242.603842866603 -1.40998324127395e-015
vertex 117.632055128873 242.416434911193 -1.40998324127395e-015
endloop
endfacet
facet normal 3.16488070394351e-015 -1.70498582839028e-015 -1.0
outer loop
vertex 116.208550380809 240.703842866603 -1.40998324127395e-015
vertex 117.632055128873 242.416434911193 -1.40998324127395e-015
vertex 117.140298943178 240.581175841243 -1.40998324127395e-015
endloop
endfacet
facet normal 3.16488070394351e-015 -1.70498582839028e-015 -1.0
outer loop
vertex 117.140298943178 240.581175841243 -1.40998324127395e-015
vertex 117.632055128873 242.416434911193 -1.40998324127395e-015
vertex 118.008550380809 240.221534320227 -1.40998324127395e-015
endloop
endfacet
facet normal 3.16488070394351e-015 -1.70498582839028e-015 -1.0
outer loop
vertex 118.008550380809 240.221534320227 -1.40998324127395e-015
vertex 117.632055128873 242.416434911193 -1.40998324127395e-015
vertex 118.958550380809 241.866982587417 -1.40998324127395e-015
endloop
endfacet
facet normal 3.16488070394351e-015 -1.70498582839028e-015 -1.0
outer loop
vertex 118.008550380809 240.221534320227 -1.40998324127395e-015
vertex 118.958550380809 241.866982587417 -1.40998324127395e-015
vertex 118.754134793081 239.649427278874 -1.40998324127395e-015
endloop
endfacet
facet normal 3.16488070394351e-015 -1.70498582839028e-015 -1.0
outer loop
vertex 118.754134793081 239.649427278874 -1.40998324127395e-015
vertex 118.958550380809 241.866982587417 -1.40998324127395e-015
vertex 119.326241834433 238.903842866603 -1.40998324127395e-015
endloop
endfacet
facet normal 3.16488070394351e-015 -1.70498582839028e-015 -1.0
outer loop
vertex 119.326241834433 238.903842866603 -1.40998324127395e-015
vertex 118.958550380809 241.866982587417 -1.40998324127395e-015
vertex 120.097637677335 240.992930163129 -1.40998324127395e-015
endloop
endfacet
facet normal 3.16488070394351e-015 -1.70498582839028e-015 -1.0
outer loop
vertex 119.326241834433 238.903842866603 -1.40998324127395e-015
vertex 120.097637677335 240.992930163129 -1.40998324127395e-015
vertex 119.68588335545 238.035591428972 -1.40998324127395e-015
endloop
endfacet
facet normal 3.16488070394351e-015 -1.70498582839028e-015 -1.0
outer loop
vertex 119.68588335545 238.035591428972 -1.40998324127395e-015
vertex 120.097637677335 240.992930163129 -1.40998324127395e-015
vertex 119.808550380809 237.103842866603 -1.40998324127395e-015
endloop
endfacet
facet normal 3.16488070394351e-015 -1.70498582839028e-015 -1.0
outer loop
vertex 32.3194630842833 233.214755570077 -2.66486832600776e-013
vertex 32.7312174061686 236.172094304234 -2.66486832600776e-013
vertex 33.4585503808093 232.340703145788 -2.66486832600776e-013
endloop
endfacet
facet normal 3.16488070394351e-015 -1.70498582839028e-015 -1.0
outer loop
vertex 32.7312174061686 236.172094304234 -2.66486832600776e-013
vertex 32.3194630842833 233.214755570077 -2.66486832600776e-013
vertex 32.6085503808093 237.103842866603 -2.66486832600776e-013
endloop
endfacet
facet normal 3.16488070394351e-015 -1.70498582839028e-015 -1.0
outer loop
vertex 33.4585503808093 232.340703145788 -2.66486832600776e-013
vertex 32.7312174061686 236.172094304234 -2.66486832600776e-013
vertex 33.0908589271853 235.303842866603 -2.66486832600776e-013
endloop
endfacet
facet normal 3.16488070394351e-015 -1.70498582839028e-015 -1.0
outer loop
vertex 33.4585503808093 232.340703145788 -2.66486832600776e-013
vertex 33.0908589271853 235.303842866603 -2.66486832600776e-013
vertex 33.6629659685377 234.558258454331 -2.66486832600776e-013
endloop
endfacet
facet normal 3.16488070394351e-015 -1.70498582839028e-015 -1.0
outer loop
vertex 33.4585503808093 232.340703145788 -2.66486832600776e-013
vertex 33.6629659685377 234.558258454331 -2.66486832600776e-013
vertex 34.7850456327454 231.791250822013 -2.66486832600776e-013
endloop
endfacet
facet normal 3.16488070394351e-015 -1.70498582839028e-015 -1.0
outer loop
vertex 34.7850456327454 231.791250822013 -2.66486832600776e-013
vertex 33.6629659685377 234.558258454331 -2.66486832600776e-013
vertex 34.4085503808093 233.986151412979 -2.66486832600776e-013
endloop
endfacet
facet normal 3.16488070394351e-015 -1.70498582839028e-015 -1.0
outer loop
vertex 34.7850456327454 231.791250822013 -2.66486832600776e-013
vertex 34.4085503808093 233.986151412979 -2.66486832600776e-013
vertex 35.2768018184402 233.626509891962 -2.66486832600776e-013
endloop
endfacet
facet normal 3.16488070394351e-015 -1.70498582839028e-015 -1.0
outer loop
vertex 34.7850456327454 231.791250822013 -2.66486832600776e-013
vertex 35.2768018184402 233.626509891962 -2.66486832600776e-013
vertex 36.2085503808093 231.603842866603 -2.66486832600776e-013
endloop
endfacet
facet normal 3.16488070394351e-015 -1.70498582839028e-015 -1.0
outer loop
vertex 36.2085503808093 231.603842866603 -2.66486832600776e-013
vertex 35.2768018184402 233.626509891962 -2.66486832600776e-013
vertex 36.2085503808093 233.503842866603 -2.66486832600776e-013
endloop
endfacet
facet normal 3.16488070394351e-015 -1.70498582839028e-015 -1.0
outer loop
vertex 36.2085503808093 231.603842866603 -2.66486832600776e-013
vertex 36.2085503808093 233.503842866603 -2.66486832600776e-013
vertex 37.1402989431783 233.626509891962 -2.66486832600776e-013
endloop
endfacet
facet normal 3.16488070394351e-015 -1.70498582839028e-015 -1.0
outer loop
vertex 36.2085503808093 231.603842866603 -2.66486832600776e-013
vertex 37.1402989431783 233.626509891962 -2.66486832600776e-013
vertex 116.208550380809 231.603842866603 -1.40998324127395e-015
endloop
endfacet
facet normal 3.16488070394351e-015 -1.70498582839028e-015 -1.0
outer loop
vertex 116.208550380809 231.603842866603 -1.40998324127395e-015
vertex 37.1402989431783 233.626509891962 -2.66486832600776e-013
vertex 38.0085503808093 233.986151412979 -2.66486832600776e-013
endloop
endfacet
facet normal 3.16488070394351e-015 -1.70498582839028e-015 -1.0
outer loop
vertex 116.208550380809 231.603842866603 -1.40998324127395e-015
vertex 38.0085503808093 233.986151412979 -2.66486832600776e-013
vertex 38.7541347930809 234.558258454331 -2.66486832600776e-013
endloop
endfacet
facet normal 3.16488070394351e-015 -1.70498582839028e-015 -1.0
outer loop
vertex 116.208550380809 231.603842866603 -1.40998324127395e-015
vertex 38.7541347930809 234.558258454331 -2.66486832600776e-013
vertex 39.3262418344333 235.303842866603 -2.66486832600776e-013
endloop
endfacet
facet normal 3.16488070394351e-015 -1.70498582839028e-015 -1.0
outer loop
vertex 116.208550380809 231.603842866603 -1.40998324127395e-015
vertex 39.3262418344333 235.303842866603 -2.66486832600776e-013
vertex 39.6858833554499 236.172094304234 -2.66486832600776e-013
endloop
endfacet
facet normal 3.16488070394351e-015 -1.70498582839028e-015 -1.0
outer loop
vertex 116.208550380809 231.603842866603 -1.40998324127395e-015
vertex 39.6858833554499 236.172094304234 -2.66486832600776e-013
vertex 39.8085503808093 237.103842866603 -2.66486832600776e-013
endloop
endfacet
facet normal 3.16488070394351e-015 -1.70498582839028e-015 -1.0
outer loop
vertex 116.208550380809 231.603842866603 -1.40998324127395e-015
vertex 39.8085503808093 237.103842866603 -2.66486832600776e-013
vertex 113.662965968538 234.558258454331 -1.40998324127395e-015
endloop
endfacet
facet normal 3.16488070394351e-015 -1.70498582839028e-015 -1.0
outer loop
vertex 113.662965968538 234.558258454331 -1.40998324127395e-015
vertex 39.8085503808093 237.103842866603 -2.66486832600776e-013
vertex 113.090858927185 235.303842866603 -1.40998324127395e-015
endloop
endfacet
facet normal 3.16488070394351e-015 -1.70498582839028e-015 -1.0
outer loop
vertex 113.090858927185 235.303842866603 -1.40998324127395e-015
vertex 39.8085503808093 237.103842866603 -2.66486832600776e-013
vertex 112.731217406169 236.172094304234 -1.40998324127395e-015
endloop
endfacet
facet normal 3.16488070394351e-015 -1.70498582839028e-015 -1.0
outer loop
vertex 112.731217406169 236.172094304234 -1.40998324127395e-015
vertex 39.8085503808093 237.103842866603 -2.66486832600776e-013
vertex 112.608550380809 237.103842866603 -1.40998324127395e-015
endloop
endfacet
facet normal 3.16488070394351e-015 -1.70498582839028e-015 -1.0
outer loop
vertex 116.208550380809 231.603842866603 -1.40998324127395e-015
vertex 113.662965968538 234.558258454331 -1.40998324127395e-015
vertex 114.408550380809 233.986151412979 -1.40998324127395e-015
endloop
endfacet
facet normal 3.16488070394351e-015 -1.70498582839028e-015 -1.0
outer loop
vertex 116.208550380809 231.603842866603 -1.40998324127395e-015
vertex 114.408550380809 233.986151412979 -1.40998324127395e-015
vertex 115.27680181844 233.626509891962 -1.40998324127395e-015
endloop
endfacet
facet normal 3.16488070394351e-015 -1.70498582839028e-015 -1.0
outer loop
vertex 116.208550380809 231.603842866603 -1.40998324127395e-015
vertex 115.27680181844 233.626509891962 -1.40998324127395e-015
vertex 116.208550380809 233.503842866603 -1.40998324127395e-015
endloop
endfacet
facet normal 3.16488070394351e-015 -1.70498582839028e-015 -1.0
outer loop
vertex 116.208550380809 231.603842866603 -1.40998324127395e-015
vertex 116.208550380809 233.503842866603 -1.40998324127395e-015
vertex 117.140298943178 233.626509891962 -1.40998324127395e-015
endloop
endfacet
facet normal 3.16488070394351e-015 -1.70498582839028e-015 -1.0
outer loop
vertex 116.208550380809 231.603842866603 -1.40998324127395e-015
vertex 117.140298943178 233.626509891962 -1.40998324127395e-015
vertex 117.632055128873 231.791250822013 -1.40998324127395e-015
endloop
endfacet
facet normal 3.16488070394351e-015 -1.70498582839028e-015 -1.0
outer loop
vertex 117.632055128873 231.791250822013 -1.40998324127395e-015
vertex 117.140298943178 233.626509891962 -1.40998324127395e-015
vertex 118.008550380809 233.986151412979 -1.40998324127395e-015
endloop
endfacet
facet normal 3.16488070394351e-015 -1.70498582839028e-015 -1.0
outer loop
vertex 117.632055128873 231.791250822013 -1.40998324127395e-015
vertex 118.008550380809 233.986151412979 -1.40998324127395e-015
vertex 118.958550380809 232.340703145788 -1.40998324127395e-015
endloop
endfacet
facet normal 3.16488070394351e-015 -1.70498582839028e-015 -1.0
outer loop
vertex 118.958550380809 232.340703145788 -1.40998324127395e-015
vertex 118.008550380809 233.986151412979 -1.40998324127395e-015
vertex 118.754134793081 234.558258454331 -1.40998324127395e-015
endloop
endfacet
facet normal 3.16488070394351e-015 -1.70498582839028e-015 -1.0
outer loop
vertex 118.958550380809 232.340703145788 -1.40998324127395e-015
vertex 118.754134793081 234.558258454331 -1.40998324127395e-015
vertex 119.326241834433 235.303842866603 -1.40998324127395e-015
endloop
endfacet
facet normal 3.16488070394351e-015 -1.70498582839028e-015 -1.0
outer loop
vertex 118.958550380809 232.340703145788 -1.40998324127395e-015
vertex 119.326241834433 235.303842866603 -1.40998324127395e-015
vertex 120.097637677335 233.214755570077 -1.40998324127395e-015
endloop
endfacet
facet normal 3.16488070394351e-015 -1.70498582839028e-015 -1.0
outer loop
vertex 120.097637677335 233.214755570077 -1.40998324127395e-015
vertex 119.326241834433 235.303842866603 -1.40998324127395e-015
vertex 119.68588335545 236.172094304234 -1.40998324127395e-015
endloop
endfacet
facet normal 3.16488070394351e-015 -1.70498582839028e-015 -1.0
outer loop
vertex 120.097637677335 233.214755570077 -1.40998324127395e-015
vertex 119.68588335545 236.172094304234 -1.40998324127395e-015
vertex 119.808550380809 237.103842866603 -1.40998324127395e-015
endloop
endfacet
facet normal 3.16488070394351e-015 -1.70498582839028e-015 -1.0
outer loop
vertex 120.097637677335 233.214755570077 -1.40998324127395e-015
vertex 119.808550380809 237.103842866603 -1.40998324127395e-015
vertex 120.097637677335 240.992930163129 -1.40998324127395e-015
endloop
endfacet
facet normal 3.16488070394351e-015 -1.70498582839028e-015 -1.0
outer loop
vertex 120.097637677335 233.214755570077 -1.40998324127395e-015
vertex 120.097637677335 240.992930163129 -1.40998324127395e-015
vertex 120.971690101624 239.853842866603 -1.40998324127395e-015
endloop
endfacet
facet normal 3.16488070394351e-015 -1.70498582839028e-015 -1.0
outer loop
vertex 120.097637677335 233.214755570077 -1.40998324127395e-015
vertex 120.971690101624 239.853842866603 -1.40998324127395e-015
vertex 120.971690101624 234.353842866603 -1.40998324127395e-015
endloop
endfacet
facet normal 3.16488070394351e-015 -1.70498582839028e-015 -1.0
outer loop
vertex 120.971690101624 234.353842866603 -1.40998324127395e-015
vertex 120.971690101624 239.853842866603 -1.40998324127395e-015
vertex 121.521142425399 238.527347614667 -1.40998324127395e-015
endloop
endfacet
facet normal 3.16488070394351e-015 -1.70498582839028e-015 -1.0
outer loop
vertex 120.971690101624 234.353842866603 -1.40998324127395e-015
vertex 121.521142425399 238.527347614667 -1.40998324127395e-015
vertex 121.521142425399 235.680338118539 -1.40998324127395e-015
endloop
endfacet
facet normal 3.16488070394351e-015 -1.70498582839028e-015 -1.0
outer loop
vertex 121.521142425399 235.680338118539 -1.40998324127395e-015
vertex 121.521142425399 238.527347614667 -1.40998324127395e-015
vertex 121.708550380809 237.103842866603 -1.40998324127395e-015
endloop
endfacet
endsolid fingerdigger04
