<?xml version="1.0" encoding="UTF-8"?>
<svg xmlns="http://www.w3.org/2000/svg" xmlns:xlink="http://www.w3.org/1999/xlink" xmlns:svgjs="http://svgjs.com/svgjs" version="1.1" width="512" height="512" x="0" y="0" viewBox="0 0 437.248 437.248" style="enable-background:new 0 0 512 512" xml:space="preserve" class="">
  <g>
<g xmlns="http://www.w3.org/2000/svg">
	<g>
		<path d="M416.768,87.552h-87.04V35.328c0-11.264-9.216-20.48-20.48-20.48H128c-11.264,0-20.48,9.216-20.48,20.48v52.224H20.48    C9.216,87.552,0,96.768,0,108.032v208.896c0,11.264,9.216,20.48,20.48,20.48h81.92v64.512c0,11.264,9.216,20.48,20.48,20.48    h191.488c11.264,0,20.48-9.216,20.48-20.48v-64.512h81.92c11.264,0,20.48-9.216,20.48-20.48V108.032    C437.248,96.768,428.032,87.552,416.768,87.552z M148.48,55.808h140.288v31.744H148.48V55.808z M293.888,381.44H143.36V264.192    h150.528V381.44z M379.392,181.248h-46.08v-40.96h46.08V181.248z" fill="#4285f4" data-original="#000000" style="" class=""/>
	</g>
</g>















</g>
</svg>
